<?xml version="1.0" standalone="no"?>
<!DOCTYPE svg PUBLIC "-//W3C//DTD SVG 1.1//EN" "http://www.w3.org/Graphics/SVG/1.1/DTD/svg11.dtd">
<svg xmlns="http://www.w3.org/2000/svg">
<defs >
<font id="Exo2" horiz-adv-x="559" ><font-face
    font-family="Exo 2 SemiBold"
    units-per-em="1000"
    panose-1="0 0 0 0 0 0 0 0 0 0"
    ascent="999"
    descent="-201"
    alphabetic="0" />
<glyph unicode=" " horiz-adv-x="219" />
<glyph unicode="!" horiz-adv-x="289" d="M205 695V410L193 216H97L84 410V695H205ZM160 137Q184 137 193 128T203 94V44Q203 19 194 10T160 0H130Q106 0 97 9T87 44V94Q87 118 96 127T130 137H160Z" />
<glyph unicode="&quot;" horiz-adv-x="365" d="M305 690L298 471H222L214 690H305ZM151 690L144 471H67L60 690H151Z" />
<glyph unicode="#" horiz-adv-x="701" d="M332 690L212 0H119L239 690H332ZM583 690L463 0H370L490 690H583ZM663 510L648 435H80L94 510H663ZM621 278L606 204H38L52 278H621Z" />
<glyph unicode="$" horiz-adv-x="573" d="M289 703Q339 702 395 697T505 678L497 593Q454 594 399 595T290 597Q259 597 237 595T200 585T180 561T174 515Q174 470 192 451T254 421L387 381Q468 356 499 309T530 182Q530 123 517 85T474 26T399 -4T286 -13Q252
-13 194 -9T58 11L66 102Q125 101 164 100T233 98T287 98Q332 98 358 104T394 128T405 182Q405 213 397 230T373 258T329 275L190 318Q114 342 82 389T50 515Q50 574 63 611T106 668T181 695T289 703ZM262 356L309 354L270 -122H222L262 356ZM359 796L320 354L271
356L311 796H359Z" />
<glyph unicode="%" horiz-adv-x="902" d="M206 703Q268 703 305 683T357 619T373 498Q373 423 358 378T305 313T206 293Q145 293 108 313T56 378T40 498Q40 574 55 618T108 683T206 703ZM206 633Q177 633 161 622T137 581T130 498Q130 445 137 416T160 375T206
363Q236 363 252 374T275 415T282 498Q282 551 276 580T253 621T206 633ZM703 690L275 0H196L624 690H703ZM695 399Q757 399 793 379T846 315T862 195Q862 120 846 75T794 10T695 -10Q634 -10 597 9T545 74T529 195Q529 270 544 314T597 379T695 399ZM694 330Q665
330 649 319T626 278T619 195Q619 142 625 112T648 71T694 59Q724 59 740 70T764 112T771 195Q771 248 764 277T741 318T694 330Z" />
<glyph unicode="&amp;" horiz-adv-x="769" d="M344 701Q376 701 418 700T505 690L491 603Q479 604 462 604T424 605T382 606T340 606Q289 606 260 599T218 569T205 502Q205 461 215 439T249 408T315 399H709L708 314H309Q264 314 238 304T200 269T189 198Q189
156 198 133T232 100T297 90Q359 91 408 108T493 161L507 91Q476 53 442 31T365 -1T264 -11Q191 -11 146 6T79 64T58 175Q58 254 87 301T193 356V360Q131 366 105 406T78 521Q78 581 93 617T140 671T223 695T344 701ZM594 516V146Q594 115 607 102T649 89H716L730
6Q714 1 692 -3T648 -8T611 -10Q548 -10 514 22T480 111V361L492 516H594Z" />
<glyph unicode="&apos;" horiz-adv-x="210" d="M151 690L144 471H67L60 690H151Z" />
<glyph unicode="(" horiz-adv-x="363" d="M324 790L339 735Q245 692 204 585T163 313Q163 205 181 121T237 -21T339 -110L324 -165Q180 -115 113 0T46 312Q46 509 113 625T324 790Z" />
<glyph unicode=")" horiz-adv-x="363" d="M39 790Q183 741 250 625T318 312Q318 116 251 1T39 -165L24 -110Q87 -79 125 -21T181 121T199 313Q199 478 159 585T24 735L39 790Z" />
<glyph unicode="*" horiz-adv-x="452" d="M261 691L250 526L354 397L299 357L226 479L153 358L97 398L201 526L191 691H261ZM67 607L184 560V530L168 511L45 542L67 607ZM385 607L407 541L284 511L268 530V560L385 607Z" />
<glyph unicode="+" horiz-adv-x="543" d="M495 345V255H47V345H495ZM317 516L316 84H226V516H317Z" />
<glyph unicode="," horiz-adv-x="236" d="M133 137Q157 137 166 128T176 94V30Q176 -5 171 -34T155 -90T131 -141L80 -125Q87 -93 90 -65T93 0Q59 0 58 38L59 94Q60 118 70 127T103 137H133Z" />
<glyph unicode="-" horiz-adv-x="429" d="M365 295V213H64V295H365Z" />
<glyph unicode="." horiz-adv-x="238" d="M135 137Q160 137 169 128T179 94V44Q179 19 170 10T135 0H102Q78 0 68 9T58 44V94Q58 118 68 127T102 137H135Z" />
<glyph unicode="/" horiz-adv-x="538" d="M514 690L121 -70H24L417 690H514Z" />
<glyph unicode="0" horiz-adv-x="619" d="M309 703Q404 703 459 668T539 553T564 345Q564 216 540 137T460 23T309 -13Q215 -13 160 22T80 137T55 345Q55 474 79 553T159 667T309 703ZM309 602Q271 602 246 589T206 547T185 469T179 345Q179 272 185 222T206 143T246
101T309 88Q346 88 372 101T413 143T434 222T440 345Q440 419 434 468T413 547T372 589T309 602Z" />
<glyph unicode="1" horiz-adv-x="418" d="M317 690V0H192V514Q192 531 193 548T198 582L32 536L16 620L192 690H317Z" />
<glyph unicode="2" horiz-adv-x="573" d="M279 702Q348 702 398 690T475 645T503 546Q503 505 493 470T457 397T385 309L197 107Q222 111 249 112T303 113H525V0H49V70Q49 86 53 98T67 122L250 324Q313 391 345 442T376 535Q375 562 362 574T325 591T266 595Q233
595 203 594T140 591T61 583L55 677Q103 688 141 693T212 700T279 702Z" />
<glyph unicode="3" horiz-adv-x="562" d="M266 703Q346 703 394 689T464 639T487 543Q487 497 478 461T447 401T382 369V365Q452 354 478 310T505 192Q506 121 484 76T412 9T275 -13Q218 -13 159 -8T45 5L51 99Q89 97 120 95T181 92T242 91Q294 91 324 101T368
137T382 207Q382 242 373 266T338 304T262 317H133V404H262Q298 404 319 413T351 436T365 470T369 511Q368 549 357 568T320 593T246 600Q195 600 148 599T65 594L58 685Q112 694 163 698T266 703Z" />
<glyph unicode="4" horiz-adv-x="628" d="M345 690L167 288Q160 271 167 262T190 252H592V173L504 161H106Q78 161 59 176T33 216T38 266L225 690H345ZM505 557V0H389V445L410 557H505Z" />
<glyph unicode="5" horiz-adv-x="545" d="M477 690L472 592H184L175 437L265 428Q330 423 374 407T446 364T486 299T498 209Q498 166 488 126T453 55T382 6T264 -12Q219 -12 162 -7T44 11L56 108Q104 102 151 98T233 93Q291 93 321 106T362 146T374 212Q376 251
366 274T333 309T272 326T180 334L111 341Q92 344 81 357T70 389L87 690H477Z" />
<glyph unicode="6" horiz-adv-x="582" d="M338 702Q361 702 403 700T491 685L483 602Q459 604 439 604T395 605T338 605Q291 605 260 595T211 556T186 472T179 326Q179 254 182 207T198 134T235 96T304 85Q356 85 380 101T411 149T418 228Q418 278 409 306T376
347T307 360Q277 360 252 353T199 327T132 276L128 328Q162 376 192 403T257 441T342 452Q417 452 459 430T519 360T536 230Q536 172 527 127T493 51T423 4T303 -12Q229 -12 181 4T106 59T68 164T57 331Q57 452 74 525T126 637T214 688T338 702Z" />
<glyph unicode="7" horiz-adv-x="521" d="M437 690Q460 690 475 681T494 655T492 617L279 0H156L340 528Q345 543 351 558T366 587H37L32 690H437Z" />
<glyph unicode="8" horiz-adv-x="616" d="M309 701Q380 701 425 690T495 657T531 601T541 518Q541 476 531 442T498 386T440 360V356Q486 352 511 328T547 263T557 172Q557 107 537 67T463 8T309 -11Q210 -11 156 7T81 66T60 172Q60 223 70 263T106 327T177 356V360Q141
364 119 385T86 441T76 518Q76 566 86 600T122 657T193 690T309 701ZM311 314Q270 314 244 309T204 291T183 255T177 196Q177 155 188 131T228 97T310 87Q362 87 390 96T428 130T438 196Q438 233 433 256T413 291T375 309T311 314ZM310 610Q261 610 235 601T199
568T189 504Q189 463 199 441T235 410T311 402Q361 402 386 410T419 441T428 504Q428 545 419 568T385 600T310 610Z" />
<glyph unicode="9" horiz-adv-x="582" d="M282 702Q359 702 407 685T480 629T514 522T523 352Q523 236 508 164T459 54T373 2T243 -12Q218 -12 174 -10T78 5L86 89Q113 87 134 87T180 86T243 86Q291 86 322 97T370 138T395 221T403 358Q403 432 400 480T386 555T350
594T280 605Q231 605 207 589T174 541T165 460Q165 416 174 387T207 344T274 329Q304 329 329 337T381 363T447 414L451 362Q419 314 389 287T323 249T239 238Q165 238 123 266T64 345T47 459Q47 542 68 595T140 675T282 702Z" />
<glyph unicode=":" horiz-adv-x="248" d="M136 446Q161 446 170 437T180 403V353Q180 328 171 319T136 309H103Q79 309 69 318T59 353V403Q59 427 69 436T103 446H136ZM136 137Q161 137 170 128T180 94V44Q180 19 171 10T136 0H103Q79 0 69 9T59 44V94Q59 118
69 127T103 137H136Z" />
<glyph unicode=";" horiz-adv-x="249" d="M141 446Q166 446 175 437T185 403V353Q185 328 176 319T141 309H108Q84 309 74 318T64 353V403Q64 427 74 436T108 446H141ZM139 137Q163 137 172 128T182 94V30Q182 -5 177 -34T161 -90T137 -141L86 -125Q93 -93 96
-65T99 0Q65 0 64 38L65 94Q66 118 76 127T109 137H139Z" />
<glyph unicode="&lt;" horiz-adv-x="523" d="M460 516V421L149 299L460 180V85L45 252V347L460 516Z" />
<glyph unicode="=" horiz-adv-x="581" d="M516 445V358H66V445H516ZM516 233V145H66V233H516Z" />
<glyph unicode="&gt;" horiz-adv-x="522" d="M63 516L477 347V252L63 85V180L373 299L63 421V516Z" />
<glyph unicode="?" horiz-adv-x="514" d="M268 712Q373 712 425 675T477 557Q477 513 460 481T416 422T364 367T318 303T295 216H196Q194 269 208 309T246 379T292 434T331 482T349 534Q352 575 326 594T240 613Q191 613 159 612T101 610T40 606L35 689Q63 694
85 698T131 705T188 710T268 712ZM260 137Q284 137 293 128T303 94V44Q303 19 294 10T260 0H231Q207 0 198 9T188 44V94Q188 118 197 127T231 137H260Z" />
<glyph unicode="@" horiz-adv-x="742" d="M514 594Q593 594 636 559T679 439V134H589L579 205Q561 187 533 168T469 137T392 124Q352 124 321 138T272 179T254 246V295Q254 345 286 373T378 402H566V437Q566 472 551 487T491 502H366Q303 502 266 497T209 470T184
400T177 267Q177 197 181 152T199 81T237 45T303 32T404 29H677V-53Q609 -58 541 -61T405 -64Q313 -65 252 -58T153 -32T96 23T71 120T65 267Q65 353 70 411T92 506T142 561T230 587T366 594H514ZM566 340L420 336Q390 335 377 324T364 287V265Q364 236 379 223T422
210Q446 210 472 216T522 234T566 263V340Z" />
<glyph unicode="A" horiz-adv-x="640" d="M381 690Q397 690 409 681T426 657L635 0H507L349 532Q345 548 341 564T334 595H306Q303 580 299 564T290 532L133 0H5L214 657Q218 672 230 681T259 690H381ZM497 295V197H142V295H497Z" />
<glyph unicode="B" horiz-adv-x="632" d="M322 698Q410 698 462 683T538 628T561 518Q561 444 533 405T441 360V356Q520 349 551 302T583 172Q583 101 560 62T486 8T354 -8Q291 -8 244 -8T158 -5T77 0L91 91Q115 90 180 89T333 88Q380 88 407 96T445 128T457 195Q457
243 445 268T406 304T328 315H90V400H327Q370 400 394 408T430 439T441 502Q441 543 430 565T391 594T316 602Q263 602 222 602T149 602T91 599L77 690Q115 694 149 695T225 697T322 698ZM199 690V0H77V690H199Z" />
<glyph unicode="C" horiz-adv-x="580" d="M336 702Q383 702 416 700T477 693T535 680L524 587Q493 589 466 590T409 593T336 594Q278 594 245 571T199 494T185 345Q185 250 198 196T245 119T336 96Q403 96 448 98T538 106L549 14Q504 0 456 -6T336 -12Q232 -12
170 22T81 135T53 345Q53 477 80 555T170 667T336 702Z" />
<glyph unicode="D" horiz-adv-x="675" d="M337 699Q415 699 469 682T557 624T606 515T621 345Q621 244 606 176T558 67T470 9T337 -9Q262 -9 198 -7T77 0L129 96Q169 94 221 93T337 91Q395 91 428 113T476 191T490 345Q490 443 476 498T429 577T337 600Q275 600
227 599T132 598L77 690Q134 694 197 696T337 699ZM202 690V0H77V690H202Z" />
<glyph unicode="E" horiz-adv-x="570" d="M213 692Q265 692 319 692T427 690T527 684L521 591H251Q223 591 210 577T196 533V157Q196 127 209 113T251 99H521L527 6Q480 2 427 1T320 -1T213 -2Q149 -2 111 33T71 129V561Q72 621 110 656T213 692ZM89 407H483V315H89V407Z" />
<glyph unicode="F" horiz-adv-x="549" d="M217 692Q268 692 320 692T424 690T520 683L514 591H260Q230 591 215 577T200 533V0H75V558Q75 621 114 656T217 692ZM92 396H476V304H92V396Z" />
<glyph unicode="G" horiz-adv-x="640" d="M352 703Q393 703 428 701T496 694T559 680L548 588Q515 590 483 591T420 593T356 594Q308 594 275 585T223 548T194 471T185 342Q185 249 197 196T239 119T317 95Q350 95 378 103T429 124T474 152L489 87Q473 67 443
44T370 4T275 -13Q197 -13 148 24T76 141T53 346Q53 482 82 560T176 670T352 703ZM581 398V0H489L471 103L459 128V398H581Z" />
<glyph unicode="H" horiz-adv-x="681" d="M202 690V0H77V690H202ZM490 417V319H194V417H490ZM604 690V0H479V690H604Z" />
<glyph unicode="I" horiz-adv-x="279" d="M202 690V0H77V690H202Z" />
<glyph unicode="J" horiz-adv-x="359" d="M284 690V140Q284 66 246 28T136 -10Q121 -10 99 -9T57 -3T24 6L38 90H87Q160 90 160 154V690H284Z" />
<glyph unicode="K" horiz-adv-x="616" d="M592 690L403 409Q393 393 382 382T358 360V357Q372 347 386 333T409 303L605 0H465L238 361L456 690H592ZM202 690V486Q202 454 198 423T184 361Q191 332 196 302T202 243V0H77V690H202ZM290 405V314H162V405H290Z" />
<glyph unicode="L" horiz-adv-x="526" d="M199 690V160Q199 131 214 117T259 102H503L509 7Q441 1 368 0T222 -2Q146 -2 111 37T75 136V690H199Z" />
<glyph unicode="M" horiz-adv-x="899" d="M760 690Q807 690 808 642L835 0H716L692 591H673L544 128Q535 87 493 87H405Q362 87 352 128L223 591H204L182 0H63L90 642Q92 690 138 690H263Q303 690 313 649L419 271Q426 247 430 223T441 175H456Q462 199 467 223T478
272L584 649Q593 690 635 690H760Z" />
<glyph unicode="N" horiz-adv-x="715" d="M638 690V47Q638 0 592 0H507Q486 0 475 9T455 38L246 454Q236 476 224 502T205 553H192Q194 528 195 503T197 452V0H77V643Q77 690 123 690H206Q227 690 238 681T258 652L461 247Q473 225 485 198T509 142H524Q522 171
521 198T519 253V690H638Z" />
<glyph unicode="O" horiz-adv-x="679" d="M339 703Q419 703 474 686T562 627T611 517T626 345Q626 243 611 174T563 63T474 5T339 -13Q261 -13 206 4T117 63T68 173T53 345Q53 448 68 517T117 627T206 685T339 703ZM339 601Q280 601 247 578T199 499T185 345Q185
247 199 192T246 113T339 89Q399 89 432 112T480 191T494 345Q494 443 480 498T433 577T339 601Z" />
<glyph unicode="P" horiz-adv-x="606" d="M330 699Q421 699 473 680T547 613T570 478Q570 391 549 343T478 276T346 257Q301 257 260 260T183 268T122 278T87 288L90 355Q147 355 207 355T328 355Q372 356 397 366T433 402T444 478Q444 527 434 553T398 590T328
601Q240 601 177 600T91 597L77 690Q117 694 152 696T229 698T330 699ZM202 690V0H77V690H202Z" />
<glyph unicode="Q" horiz-adv-x="680" d="M340 703Q419 703 474 686T562 627T611 517T627 345Q627 243 612 174T563 63T474 5T340 -13Q261 -13 206 4T118 63T69 173T53 345Q53 448 68 517T117 627T206 685T340 703ZM294 -38Q358 -64 427 -80T578 -109L542 -222Q457
-203 388 -172T263 -106L294 -38ZM340 601Q281 601 247 578T199 499T185 345Q185 247 199 192T247 113T340 89Q399 89 432 112T480 191T495 345Q495 443 481 498T433 577T340 601Z" />
<glyph unicode="R" horiz-adv-x="635" d="M331 699Q417 699 470 681T548 620T573 497Q573 445 561 409T520 351T443 323V318Q460 314 478 303T512 270T536 216L599 0H467L410 213Q399 249 380 263T328 278Q263 278 217 278T141 280T87 281L90 376H328Q373 377
399 386T436 420T447 490Q447 534 436 558T399 591T328 601Q240 601 177 600T91 598L77 690Q117 694 152 696T230 698T331 699ZM200 690V0H77V690H200Z" />
<glyph unicode="S" horiz-adv-x="575" d="M289 703Q340 702 396 697T507 678L499 593Q456 594 400 595T291 597Q259 597 237 595T200 585T180 561T173 515Q173 470 191 451T252 421L388 381Q470 356 501 309T532 182Q532 123 518 85T475 26T399 -4T286 -13Q252
-13 193 -9T57 11L65 101Q124 99 164 98T233 96T287 96Q333 96 359 102T395 127T406 182Q406 213 399 230T374 258T330 275L189 318Q111 342 80 389T48 515Q48 574 62 611T105 668T179 695T289 703Z" />
<glyph unicode="T" horiz-adv-x="593" d="M359 690V0H234V690H359ZM573 690V588H20V690H573Z" />
<glyph unicode="U" horiz-adv-x="677" d="M605 690V270Q605 167 580 105T498 15T345 -13Q245 -13 185 15T99 105T72 270V690H197V270Q197 202 210 162T255 106T339 89Q392 89 422 105T466 162T480 270V690H605Z" />
<glyph unicode="V" horiz-adv-x="627" d="M615 690L418 35Q413 20 401 10T372 0H254Q237 0 225 10T209 35L12 690H141L282 171Q287 152 292 133T300 95H326Q331 114 335 133T345 172L486 690H615Z" />
<glyph unicode="W" horiz-adv-x="964" d="M936 690L812 35Q808 20 796 10T765 0H641Q624 0 611 10T596 36L505 515Q501 537 498 558T492 600H472Q469 579 466 558T459 515L369 36Q366 20 353 10T323 0H198Q180 0 168 10T152 35L28 690H156L243 185Q246 165 248
141T254 92H275Q279 115 283 139T291 186L380 651Q382 669 395 679T425 690H538Q556 690 568 680T584 651L673 185Q678 162 681 138T688 92H710Q712 115 715 139T721 184L808 690H936Z" />
<glyph unicode="X" horiz-adv-x="630" d="M600 690L426 356L614 0H483L304 356L471 690H600ZM159 690L326 356L147 0H16L204 356L30 690H159ZM380 398V315H244V398H380Z" />
<glyph unicode="Y" horiz-adv-x="594" d="M588 690L355 226H239L5 690H136L264 420Q273 401 279 379T293 337H301Q307 357 314 379T329 420L457 690H588ZM359 305V0H234V305H359Z" />
<glyph unicode="Z" horiz-adv-x="577" d="M391 594L528 593L181 96L43 97L391 594ZM536 97V0H43V97H536ZM528 690V593H50V690H528Z" />
<glyph unicode="[" horiz-adv-x="339" d="M303 768V691H213Q197 691 197 673V-70Q197 -88 213 -88H303V-165H150Q121 -165 102 -150T82 -97V700Q82 730 101 749T150 768H303Z" />
<glyph unicode="\" horiz-adv-x="538" d="M122 690L515 -70H417L24 690H122Z" />
<glyph unicode="]" horiz-adv-x="339" d="M188 768Q218 768 237 749T256 700V-97Q256 -127 237 -146T188 -165H36V-88H125Q142 -88 142 -70V673Q142 691 125 691H36V768H188Z" />
<glyph unicode="^" horiz-adv-x="447" d="M268 615L417 397L369 369L228 538H220L78 369L30 397L180 615H268Z" />
<glyph unicode="_" horiz-adv-x="442" d="M442 0V-81H0V0H442Z" />
<glyph unicode="`" horiz-adv-x="337" d="M95 736L284 589L247 536L37 651L95 736Z" />
<glyph unicode="a" horiz-adv-x="561" d="M315 503Q374 503 415 488T476 435T497 333V0H401L384 106L375 120V334Q375 373 357 390T288 408Q250 408 193 405T77 397L66 480Q101 487 145 492T234 500T315 503ZM445 302L444 227H219Q189 226 176 211T163 170V143Q163
113 179 98T229 83Q256 83 289 93T354 125T413 175V112Q403 97 384 77T338 36T275 3T196 -10Q152 -10 117 5T62 51T42 127V179Q42 237 80 269T186 302H445Z" />
<glyph unicode="b" horiz-adv-x="584" d="M358 503Q452 503 495 444T538 248Q538 189 528 141T492 59T421 6T306 -12Q281 -12 249 -10T184 -3T121 8T66 25L163 99Q185 92 209 88T258 82T304 80Q344 81 367 96T402 147T413 248Q413 308 405 342T374 391T311 405Q275
405 245 388T174 342L166 407Q193 436 223 458T288 491T358 503ZM187 700L188 530Q188 498 186 469T175 411L187 397V19L66 25V700H187Z" />
<glyph unicode="c" horiz-adv-x="500" d="M288 503Q313 503 343 501T404 493T460 476L446 400Q409 402 373 403T309 404Q258 404 229 391T186 343T173 246Q173 184 186 150T228 101T309 87Q324 87 348 88T401 91T457 96L469 18Q430 2 382 -5T287 -12Q199 -12 146
13T70 94T46 246Q46 341 70 397T147 478T288 503Z" />
<glyph unicode="d" horiz-adv-x="587" d="M234 503Q284 503 332 490T419 445L411 384Q372 395 341 403T272 411Q236 411 215 399T183 351T172 249Q172 185 182 151T213 103T268 89Q295 89 316 95T359 116T410 150L420 82Q386 43 337 16T222 -12Q128 -12 88 54T48
248Q48 345 68 400T130 479T234 503ZM518 700V0H423L410 88L397 98V426L403 440Q399 469 398 498T397 559V700H518Z" />
<glyph unicode="e" horiz-adv-x="552" d="M287 503Q406 503 458 462T511 339Q512 272 480 238T372 203H92V278H339Q373 278 382 296T392 340Q391 381 369 397T292 413Q245 413 219 400T183 353T172 255Q172 187 185 150T228 100T308 86Q345 86 393 89T487 97L499
20Q472 9 437 2T365 -8T294 -12Q204 -12 150 14T71 98T46 245Q46 342 70 398T148 479T287 503Z" />
<glyph unicode="f" horiz-adv-x="394" d="M263 719Q280 719 307 718T364 716T414 710L403 629H306Q264 629 247 612T230 555V0H109V570Q109 617 124 650T173 701T263 719ZM376 491V407H22V486L113 491H376Z" />
<glyph unicode="g" horiz-adv-x="571" d="M276 503Q359 503 407 488T477 438T498 347Q498 293 477 259T407 208T275 192Q192 192 144 208T74 258T52 347Q52 403 73 437T144 487T276 503ZM275 424Q212 424 188 407T164 347Q164 306 188 289T275 271Q338 271 361
288T385 347Q385 390 362 407T275 424ZM555 491L548 435L420 421L384 491H555ZM132 222L194 213Q179 201 174 183T176 148T214 127L396 103Q470 94 500 60T530 -40Q530 -101 506 -135T428 -182T281 -196Q208 -196 160 -189T84 -164T43 -119T31 -50Q31 -18 41 4T76
43T141 76L209 105L256 88L212 57Q189 40 175 27T154 0T147 -35Q147 -63 158 -78T199 -98T280 -104Q333 -104 362 -99T402 -79T414 -37Q414 -15 407 -5T382 12T332 22L168 42Q133 46 113 62T84 102T79 149T96 193T132 222Z" />
<glyph unicode="h" horiz-adv-x="593" d="M391 503Q528 503 528 368V0H406V331Q406 371 393 386T346 401Q309 401 270 385T176 337L167 407Q223 453 279 478T391 503ZM189 700L190 520Q190 483 187 451T177 395L189 381V0H68V700H189Z" />
<glyph unicode="i" horiz-adv-x="264" d="M192 491V0H72V491H192ZM159 704Q195 704 195 668V612Q195 576 159 576H105Q69 576 69 612V668Q69 704 105 704H159Z" />
<glyph unicode="j" horiz-adv-x="266" d="M194 491V8Q194 -35 180 -74T141 -145T80 -199L13 -146Q45 -110 59 -74T73 8V491H194ZM160 707Q195 707 195 671V615Q195 579 160 579H106Q70 579 70 615V671Q70 707 106 707H160Z" />
<glyph unicode="k" horiz-adv-x="538" d="M512 491L372 316Q364 304 352 293T331 275V273Q340 267 352 254T372 226L528 0H391L212 278L375 491H512ZM189 700L190 401Q190 368 187 338T177 277Q182 248 185 217T189 159V0H68V700H189ZM264 314V236H150V314H264Z" />
<glyph unicode="l" horiz-adv-x="315" d="M190 700L189 148Q189 120 205 106T251 91H294L308 6Q297 1 278 -3T238 -8T202 -10Q141 -10 105 23T69 118V700H190Z" />
<glyph unicode="m" horiz-adv-x="879" d="M680 503Q745 503 779 469T814 368V0H694V331Q693 368 679 384T630 401Q609 401 590 395T546 374T488 337L481 410Q532 457 579 480T680 503ZM165 491L177 395L189 381V0H68V491H165ZM367 503Q431 503 465 469T500 368V0H383V331Q383
370 367 385T319 401Q299 401 279 395T235 375T175 337L168 410Q218 457 266 480T367 503Z" />
<glyph unicode="n" horiz-adv-x="593" d="M391 503Q528 503 528 368V0H407V331Q407 371 393 386T346 401Q309 401 270 385T176 337L171 410Q226 455 281 479T391 503ZM167 491L179 395L189 381V0H68V491H167Z" />
<glyph unicode="o" horiz-adv-x="580" d="M290 503Q380 503 433 478T510 396T534 245Q534 151 511 95T434 13T290 -13Q202 -13 149 12T71 94T47 245Q47 339 71 396T148 478T290 503ZM290 411Q246 411 221 397T184 346T173 245Q173 180 184 144T220 94T290 80Q335
80 361 94T397 144T408 245Q408 310 398 346T361 396T290 411Z" />
<glyph unicode="p" horiz-adv-x="592" d="M373 503Q465 503 504 436T544 242Q544 145 524 90T462 11T358 -13Q308 -13 261 1T173 47L181 107Q220 96 251 88T319 80Q356 80 377 92T409 140T419 241Q419 306 410 342T381 392T327 407Q291 407 259 392T185 346L171
410Q194 437 226 458T297 491T373 503ZM166 491L178 396L189 382V65L184 53Q187 24 188 -5T189 -66V-195H68V491H166Z" />
<glyph unicode="q" horiz-adv-x="584" d="M280 503Q305 503 336 501T400 495T463 483T518 467L420 392Q399 399 374 404T325 410T281 411Q240 410 216 396T182 344T171 239Q171 159 190 124T265 89Q306 89 338 105T410 146L422 85Q396 59 364 37T296 1T220 -13Q129
-13 88 50T47 243Q47 305 57 353T94 434T165 485T280 503ZM397 472L518 467V-195H397L396 -39Q396 -5 399 24T409 81L397 95V472Z" />
<glyph unicode="r" horiz-adv-x="416" d="M162 491L178 395L189 381V0H68V491H162ZM402 503L390 391H355Q316 391 276 378T176 339L168 410Q220 454 274 478T378 503H402Z" />
<glyph unicode="s" horiz-adv-x="521" d="M245 503Q279 503 318 501T396 496T464 486L456 407Q408 408 361 409T267 411Q226 411 203 409T170 397T160 363Q160 334 176 325T228 306L362 275Q423 260 451 230T480 136Q480 75 458 44T387 1T263 -11Q234 -11 177
-9T52 5L60 84Q80 84 107 83T166 82T231 82Q284 82 312 85T352 100T363 134Q363 162 345 171T290 190L159 222Q114 234 89 252T53 298T42 366Q42 420 62 450T127 492T245 503Z" />
<glyph unicode="t" horiz-adv-x="397" d="M230 631V148Q230 118 243 105T290 91H358L371 6Q354 1 330 -3T283 -8T244 -10Q180 -10 145 24T109 124V631H230ZM376 491V407H22V486L118 491H376Z" />
<glyph unicode="u" horiz-adv-x="583" d="M186 491V159Q185 122 200 106T251 90Q286 90 321 105T406 150L418 78Q362 33 310 10T202 -13Q65 -13 65 122V491H186ZM515 491V0H419L406 95L394 109V491H515Z" />
<glyph unicode="v" horiz-adv-x="551" d="M538 491L369 29Q364 16 354 8T328 0H222Q208 0 197 8T181 29L12 491H141L244 169Q251 147 257 125T268 81H281Q288 103 294 125T307 169L410 491H538Z" />
<glyph unicode="w" horiz-adv-x="839" d="M819 491L689 32Q685 18 673 9T645 0H548Q532 0 519 10T504 37L439 338Q435 358 433 378T426 418H413Q410 398 407 378T399 338L335 37Q332 20 320 10T290 0H194Q178 0 166 9T151 32L20 491H143L225 154Q229 135 232 116T239
77H251Q256 96 259 115T267 154L332 454Q335 470 346 480T376 491H464Q480 491 492 481T507 453L572 154Q575 135 579 116T587 77H599Q603 97 606 115T614 154L696 491H819Z" />
<glyph unicode="x" horiz-adv-x="551" d="M523 491L377 252L535 0H410L258 252L398 491H523ZM152 491L293 252L142 0H15L173 252L27 491H152ZM343 295V214H209V295H343Z" />
<glyph unicode="y" horiz-adv-x="550" d="M537 491L353 -15Q340 -50 321 -84T271 -147T200 -191T105 -203L95 -131Q155 -114 188 -85T241 -11L268 53Q277 75 285 103T300 153L407 491H537ZM141 491L250 153Q255 136 259 119T266 84H291L253 0H221Q207 0 196 8T181
30L12 491H141Z" />
<glyph unicode="z" horiz-adv-x="519" d="M334 403L472 402L181 87L43 88L334 403ZM476 88V0H43V88H476ZM472 491V402H47V491H472Z" />
<glyph unicode="{" horiz-adv-x="331" d="M292 768V693Q244 693 227 678T209 621V458Q210 417 202 391T173 350T113 328Q153 317 174 301T204 261T213 202V-20Q213 -60 230 -75T296 -90V-165Q225 -172 182 -158T118 -110T97 -28V218Q97 243 91 254T73 272T39 287V369Q62
376 73 381T89 400T93 442V631Q93 680 113 713T177 761T292 768Z" />
<glyph unicode="|" horiz-adv-x="255" d="M170 781V-169H84V781H170Z" />
<glyph unicode="}" horiz-adv-x="331" d="M40 768Q111 776 154 761T217 713T238 631V442Q238 413 242 400T258 382T292 369V287Q272 279 259 273T240 255T234 218V-28Q234 -76 214 -109T150 -157T36 -165V-90Q84 -90 101 -75T118 -20V202Q119 237 127 261T157
301T219 328Q180 335 159 349T130 390T122 458V621Q122 662 105 677T40 693V768Z" />
<glyph unicode="~" horiz-adv-x="518" d="M147 356Q171 355 198 348T254 330T308 312T354 302Q379 298 386 310T394 351H451Q460 283 437 250T371 218Q345 220 317 227T261 244T208 262T164 273Q139 276 132 264T124 222H68Q61 269 71 298T101 342T147 356Z" />
<glyph unicode="&#xa0;" horiz-adv-x="219" />
<glyph unicode="&#xa1;" horiz-adv-x="272" d="M184 285L197 91V-190H76V91L88 285H184ZM152 501Q176 501 185 492T194 457V406Q194 382 185 373T152 363H122Q98 363 89 372T79 406V457Q79 482 88 491T122 501H152Z" />
<glyph unicode="&#xa2;" horiz-adv-x="518" d="M288 606Q313 606 343 604T404 595T461 579L447 503Q410 507 373 508T309 509Q255 509 224 496T179 447T165 348Q165 285 178 250T223 201T309 187Q324 187 349 187T402 190T457 197L469 121Q430 105 383 98T288
91Q199 91 146 116T70 197T46 348Q46 443 69 499T146 581T288 606ZM305 145L290 0H242L257 145H305ZM343 538L307 144H258L294 538H343ZM360 690L344 536H296L311 690H360Z" />
<glyph unicode="&#xa3;" horiz-adv-x="579" d="M317 702Q338 702 369 701T437 698T512 692L505 598Q487 598 472 599T440 600T396 601T327 601Q276 601 257 582T239 514L257 275Q259 228 252 196T228 141T184 97Q202 100 220 101T257 102H534V0H55V102Q107 127
122 172T132 275L117 518Q114 576 125 612T163 668T228 695T317 702ZM448 398L445 329H51L50 398H448Z" />
<glyph unicode="&#xa4;" horiz-adv-x="589" d="M293 482Q259 482 230 465T183 418T165 352Q165 317 182 288T229 241T293 223Q328 223 357 240T403 287T421 352Q421 388 404 417T357 464T293 482ZM111 587L195 502L144 451L59 535L111 587ZM479 587L531 535L448
453L397 504L479 587ZM147 262L201 207L111 116L56 171L147 262ZM441 255L531 167L479 116L390 205L441 255ZM293 552Q349 552 394 525T466 453T493 351Q493 296 466 251T394 179T293 152Q239 152 194 179T121 251T94 351Q94 407 121 452T193 525T293 552Z" />
<glyph unicode="&#xa5;" horiz-adv-x="645" d="M614 690L381 241H264L31 690H160L288 432Q298 413 305 391T318 348H327Q334 368 341 390T357 431L484 690H614ZM385 320V0H260V320H385ZM554 215V150H95L93 215H554ZM554 333V267H95L93 333H554Z" />
<glyph unicode="&#xa6;" horiz-adv-x="257" d="M171 781V381H85V781H171ZM171 231V-169H85V231H171Z" />
<glyph unicode="&#xa7;" horiz-adv-x="550" d="M158 371Q156 330 160 303T182 257T231 219L396 127Q423 112 446 93T483 44T497 -32Q497 -92 472 -122T399 -162T285 -172Q257 -171 219 -170T139 -166T62 -160L71 -71Q102 -73 128 -74T184 -76T251 -77Q288 -77
313 -75T353 -62T367 -27Q370 3 353 20T310 51L161 131Q108 158 84 192T59 270T72 371H158ZM267 703Q295 703 334 702T414 698T489 691L481 603Q453 605 429 606T376 607T301 607Q264 608 238 606T199 593T183 561Q181 530 199 513T243 482L391 401Q444 375 467
341T492 262T479 161H393Q396 202 391 229T369 276T320 314L155 407Q128 422 105 441T68 489T54 564Q54 621 78 651T150 692T267 703Z" />
<glyph unicode="&#xa8;" horiz-adv-x="418" d="M320 701Q348 701 348 672V615Q348 587 320 587H280Q252 587 252 615V672Q252 701 280 701H320ZM140 701Q167 701 167 672V615Q167 587 140 587H99Q71 587 71 615V672Q71 701 99 701H140Z" />
<glyph unicode="&#xa9;" horiz-adv-x="820" d="M410 703Q486 703 551 677T665 602T743 489T771 345Q771 267 743 202T666 88T551 14T410 -13Q335 -13 270 13T155 88T78 201T50 345Q50 423 78 488T155 602T269 676T410 703ZM415 560Q463 560 491 557T551 546L542
480Q510 481 484 481T414 482Q375 482 353 470T323 429T314 347Q314 295 322 266T353 224T414 211Q461 211 491 212T553 216L561 150Q529 142 497 138T415 134Q344 134 301 154T239 221T220 347Q220 425 239 472T301 539T415 560ZM410 643Q349 643 296 621T201
559T136 464T113 345Q113 281 136 227T200 132T295 69T410 47Q472 47 526 69T620 131T684 226T708 345Q708 410 685 464T621 558T526 621T410 643Z" />
<glyph unicode="&#xaa;" horiz-adv-x="439" d="M251 612Q310 612 342 587T375 494V273H304L291 345L286 355V495Q286 517 274 529T231 541Q199 541 159 540T79 535L70 597Q95 600 125 603T188 609T251 612ZM338 475L337 434L184 423Q160 422 151 413T141 388V372Q141
353 153 344T187 335Q209 335 232 344T277 367T313 396V356Q307 345 293 330T260 300T214 276T157 266Q113 266 84 289T54 356V392Q54 431 80 453T153 475H338Z" />
<glyph unicode="&#xab;" horiz-adv-x="504" d="M393 462L457 421L342 251L458 77L394 35L234 238V264L393 462ZM197 462L261 421L146 251L262 77L198 35L38 238V264L197 462Z" />
<glyph unicode="&#xac;" horiz-adv-x="585" d="M515 345V257H64V345H515ZM515 335V134L423 133V332L515 335Z" />
<glyph unicode="&#xad;" horiz-adv-x="428" d="M365 295V213H64V295H365Z" />
<glyph unicode="&#xae;" horiz-adv-x="536" d="M268 703Q330 703 380 673T460 593T490 481Q490 419 460 369T380 288T268 258Q206 258 156 288T75 368T45 481Q45 543 75 593T155 673T268 703ZM222 605V360H169V605H222ZM268 665Q218 665 176 641T109 574T84 481Q84
430 109 388T176 320T268 295Q319 295 360 320T427 387T452 481Q452 532 427 574T361 640T268 665ZM276 608Q331 608 355 593T379 536Q379 510 367 495T323 476V474Q335 473 346 465T363 437L389 360H333L310 434Q305 447 297 452T275 457Q233 457 210 457T174
458V492H274Q303 493 314 501T325 530Q326 553 315 560T274 568Q238 568 212 568T175 566L169 605Q194 607 216 607T276 608Z" />
<glyph unicode="&#xaf;" horiz-adv-x="400" d="M345 684V604H55V684H345Z" />
<glyph unicode="&#xb0;" horiz-adv-x="352" d="M177 703Q213 703 243 686T291 639T309 573Q309 537 291 507T243 459T177 441Q140 441 110 459T61 507T43 573Q43 609 61 638T109 685T177 703ZM177 640Q149 640 129 621T109 573Q109 554 118 538T143 513T177 504Q195
504 210 513T234 538T243 573Q243 602 224 621T177 640Z" />
<glyph unicode="&#xb1;" horiz-adv-x="579" d="M513 412V322H66V412H513ZM513 146V55H66V146H513ZM335 538V196H244V538H335Z" />
<glyph unicode="&#xb2;" horiz-adv-x="419" d="M200 775Q253 775 288 767T340 738T358 674Q358 644 339 612T281 543L170 436Q187 439 201 439T233 440L373 438L372 359H51V408Q51 419 54 428T65 446L176 552Q201 576 218 595T244 631T255 662Q257 685 240 691T193
697Q161 697 132 696T60 691L56 761Q103 771 140 773T200 775Z" />
<glyph unicode="&#xb3;" horiz-adv-x="408" d="M198 777Q280 777 313 757T346 682Q346 639 331 612T273 577V575Q321 568 339 544T358 473Q359 408 324 380T203 351Q164 351 124 354T49 363L54 431Q79 430 99 429T139 427T178 427Q227 427 244 439T261 485Q261
501 256 513T236 532T191 539L106 540V602L191 604Q221 605 234 612T251 632T255 658Q255 684 240 692T182 701Q150 701 118 700T61 698L57 764Q93 770 128 773T198 777Z" />
<glyph unicode="&#xb4;" horiz-adv-x="337" d="M236 736L294 650L83 535L46 588L236 736Z" />
<glyph unicode="&#xb5;" horiz-adv-x="594" d="M188 491V170Q188 124 205 109T255 94Q291 94 323 117T374 183T395 278L398 97Q383 67 358 42T299 2T227 -13Q183 -13 147 2T89 49T68 132V491H188ZM188 94L187 -73L173 -195H68V182L188 94ZM515 491V124Q515 108
517 97T524 79T543 73H574L580 7Q559 -1 534 -6T484 -11Q445 -11 422 10T398 78V97L395 113V491H515Z" />
<glyph unicode="&#xb6;" horiz-adv-x="601" d="M349 702Q383 702 428 699T512 685L506 615Q481 620 449 622T386 626T332 627L275 200Q146 210 90 268T34 450Q34 543 65 598T166 677T349 702ZM348 685V-210H265V685H348ZM512 685V0H429V685H512Z" />
<glyph unicode="&#xb7;" horiz-adv-x="244" d="M139 326Q164 326 173 317T183 283V233Q183 208 174 199T139 189H106Q82 189 72 198T62 233V283Q62 307 72 316T106 326H139Z" />
<glyph unicode="&#xb8;" horiz-adv-x="242" d="M85 -40Q131 -35 159 -38T202 -57T215 -105Q213 -151 188 -182T122 -227T28 -234L44 -179Q83 -180 108 -164T135 -115Q136 -99 124 -95T73 -89L85 -40Z" />
<glyph unicode="&#xb9;" horiz-adv-x="302" d="M229 769V359H136V646Q136 657 136 668T139 691L34 666L23 728L136 769H229Z" />
<glyph unicode="&#xba;" horiz-adv-x="441" d="M221 612Q315 612 353 573T392 438Q392 375 375 337T321 282T221 265Q126 265 88 304T50 438Q50 533 88 572T221 612ZM221 544Q176 544 160 523T143 438Q143 376 159 355T221 333Q265 333 281 354T298 438Q298 501
282 522T221 544Z" />
<glyph unicode="&#xbb;" horiz-adv-x="504" d="M110 462L270 264V238L110 35L46 77L161 251L46 421L110 462ZM308 462L467 264V238L307 35L243 77L358 251L244 421L308 462Z" />
<glyph unicode="&#xbc;" horiz-adv-x="886" d="M656 690L226 0H147L576 690H656ZM238 690V276H145V567Q145 578 146 589T149 612L43 587L33 648L145 690H238ZM691 414L581 176Q577 168 581 163T596 158H850V99L796 91H527Q501 91 486 109T485 156L605 414H691ZM802
334V0H715V268L731 334H802Z" />
<glyph unicode="&#xbd;" horiz-adv-x="903" d="M652 690L222 0H142L572 690H652ZM238 690V276H145V567Q145 578 146 589T149 612L43 587L33 648L145 690H238ZM685 421Q738 421 773 414T826 384T844 319Q844 290 826 258T768 187L652 78Q670 81 684 81T717 81L860
80L859 0H536V50Q536 61 538 70T549 88L662 195Q699 231 719 259T743 308Q744 332 727 337T677 343Q644 343 616 342T544 338L540 407Q588 416 624 418T685 421Z" />
<glyph unicode="&#xbe;" horiz-adv-x="972" d="M750 690L320 0H240L670 690H750ZM199 695Q284 695 316 675T349 600Q349 557 334 529T273 495V493Q324 486 342 461T361 389Q362 324 327 295T204 265Q165 265 125 268T48 277L52 345Q79 343 99 343T139 342T179
341Q229 341 247 354T265 401Q265 418 260 430T239 450T192 457L107 458V518L192 520Q223 521 237 528T254 548T258 575Q258 603 243 611T183 621Q149 621 118 621T61 618L57 685Q94 690 129 692T199 695ZM778 414L667 176Q664 168 668 163T683 158H936V99L883
91H614Q587 91 573 109T571 156L691 414H778ZM887 334V0H800V268L815 334H887Z" />
<glyph unicode="&#xbf;" horiz-adv-x="509" d="M316 289Q318 235 304 196T266 126T220 71T181 22T163 -30Q161 -70 187 -89T272 -108Q322 -108 353 -107T411 -105T472 -101L477 -184Q449 -189 427 -193T381 -201T324 -206T244 -208Q140 -208 88 -170T35 -53Q35
-8 52 24T96 83T148 138T194 202T217 289H316ZM281 504Q306 504 315 495T325 462V410Q325 386 316 377T281 367H253Q228 367 219 376T209 410V462Q209 486 218 495T253 504H281Z" />
<glyph unicode="&#xc0;" horiz-adv-x="640" d="M381 690Q397 690 409 681T426 657L635 0H507L349 532Q345 548 341 564T334 595H306Q303 580 299 564T290 532L133 0H5L214 657Q218 672 230 681T259 690H381ZM497 295V197H142V295H497ZM201 927L390 780L353 727L143
842L201 927Z" />
<glyph unicode="&#xc1;" horiz-adv-x="640" d="M381 690Q397 690 409 681T426 657L635 0H507L349 532Q345 548 341 564T334 595H306Q303 580 299 564T290 532L133 0H5L214 657Q218 672 230 681T259 690H381ZM497 295V197H142V295H497ZM430 927L488 841L277 726L240
779L430 927Z" />
<glyph unicode="&#xc2;" horiz-adv-x="640" d="M381 690Q397 690 409 681T426 657L635 0H507L349 532Q345 548 341 564T334 595H306Q303 580 299 564T290 532L133 0H5L214 657Q218 672 230 681T259 690H381ZM497 295V197H142V295H497ZM365 901L498 770L463 724L325
820H317L178 724L143 773L277 901H365Z" />
<glyph unicode="&#xc3;" horiz-adv-x="640" d="M381 690Q397 690 409 681T426 657L635 0H507L349 532Q345 548 341 564T334 595H306Q303 580 299 564T290 532L133 0H5L214 657Q218 672 230 681T259 690H381ZM497 295V197H142V295H497ZM233 886Q257 884 276 878T313
862T349 846T388 835Q415 831 423 842T431 881H485Q493 817 470 784T405 753Q371 756 345 767T295 791T248 806Q222 809 215 797T207 756H153Q147 802 157 831T187 874T233 886Z" />
<glyph unicode="&#xc4;" horiz-adv-x="640" d="M381 690Q397 690 409 681T426 657L635 0H507L349 532Q345 548 341 564T334 595H306Q303 580 299 564T290 532L133 0H5L214 657Q218 672 230 681T259 690H381ZM497 295V197H142V295H497ZM430 875Q458 875 458 846V789Q458
761 430 761H390Q362 761 362 789V846Q362 875 390 875H430ZM250 875Q277 875 277 846V789Q277 761 250 761H209Q181 761 181 789V846Q181 875 209 875H250Z" />
<glyph unicode="&#xc5;" horiz-adv-x="640" d="M381 690Q397 690 409 681T426 657L635 0H507L349 532Q345 548 341 564T334 595H306Q303 580 299 564T290 532L133 0H5L214 657Q218 672 230 681T259 690H381ZM497 295V197H142V295H497ZM321 935Q351 935 377 920T418
881T434 824Q434 794 419 769T378 728T321 713Q290 713 264 728T223 768T207 824Q207 856 222 880T264 920T321 935ZM320 881Q298 881 282 865T266 824Q266 799 282 784T320 768Q344 768 360 783T376 824Q376 849 360 865T320 881Z" />
<glyph unicode="&#xc6;" horiz-adv-x="925" d="M570 691Q663 691 735 690T881 684L875 591H626Q599 591 583 575T566 531V157Q566 128 581 114T626 99H875L881 6Q807 0 729 -1T574 -2Q517 -2 483 35T449 129V541Q449 560 457 580T476 610H466Q455 602 443 587T418
552L123 0H-6L307 568Q326 603 347 627T398 665T470 685T570 691ZM480 301V207H163L169 301H480ZM461 406H837V317L461 316V406Z" />
<glyph unicode="&#xc7;" horiz-adv-x="580" d="M336 702Q383 702 416 700T477 693T535 680L524 587Q493 589 466 590T409 593T336 594Q278 594 245 571T199 494T185 345Q185 250 198 196T245 119T336 96Q403 96 448 98T538 106L549 14Q504 0 456 -6T336 -12Q232
-12 170 22T81 135T53 345Q53 477 80 555T170 667T336 702ZM274 -58Q320 -53 348 -56T391 -75T404 -123Q402 -169 377 -200T311 -245T217 -252L233 -197Q272 -198 297 -182T324 -133Q325 -117 313 -113T262 -107L274 -58Z" />
<glyph unicode="&#xc8;" horiz-adv-x="570" d="M213 692Q265 692 319 692T427 690T527 684L521 591H251Q223 591 210 577T196 533V157Q196 127 209 113T251 99H521L527 6Q480 2 427 1T320 -1T213 -2Q149 -2 111 33T71 129V561Q72 621 110 656T213 692ZM89 407H483V315H89V407ZM194
941L383 794L346 741L136 856L194 941Z" />
<glyph unicode="&#xc9;" horiz-adv-x="570" d="M213 692Q265 692 319 692T427 690T527 684L521 591H251Q223 591 210 577T196 533V157Q196 127 209 113T251 99H521L527 6Q480 2 427 1T320 -1T213 -2Q149 -2 111 33T71 129V561Q72 621 110 656T213 692ZM89 407H483V315H89V407ZM423
941L481 855L270 740L233 793L423 941Z" />
<glyph unicode="&#xca;" horiz-adv-x="570" d="M213 692Q265 692 319 692T427 690T527 684L521 591H251Q223 591 210 577T196 533V157Q196 127 209 113T251 99H521L527 6Q480 2 427 1T320 -1T213 -2Q149 -2 111 33T71 129V561Q72 621 110 656T213 692ZM89 407H483V315H89V407ZM358
916L491 785L456 739L318 835H310L171 739L136 788L270 916H358Z" />
<glyph unicode="&#xcb;" horiz-adv-x="570" d="M213 692Q265 692 319 692T427 690T527 684L521 591H251Q223 591 210 577T196 533V157Q196 127 209 113T251 99H521L527 6Q480 2 427 1T320 -1T213 -2Q149 -2 111 33T71 129V561Q72 621 110 656T213 692ZM89 407H483V315H89V407ZM423
889Q451 889 451 860V803Q451 775 423 775H383Q355 775 355 803V860Q355 889 383 889H423ZM243 889Q270 889 270 860V803Q270 775 243 775H202Q174 775 174 803V860Q174 889 202 889H243Z" />
<glyph unicode="&#xcc;" horiz-adv-x="279" d="M202 690V0H77V690H202ZM20 931L209 784L172 731L-38 846L20 931Z" />
<glyph unicode="&#xcd;" horiz-adv-x="279" d="M202 690V0H77V690H202ZM249 931L307 845L96 730L59 783L249 931Z" />
<glyph unicode="&#xce;" horiz-adv-x="279" d="M202 690V0H77V690H202ZM184 906L317 775L282 729L144 825H136L-3 729L-38 778L96 906H184Z" />
<glyph unicode="&#xcf;" horiz-adv-x="279" d="M202 690V0H77V690H202ZM249 880Q277 880 277 851V794Q277 766 249 766H209Q181 766 181 794V851Q181 880 209 880H249ZM69 880Q96 880 96 851V794Q96 766 69 766H28Q0 766 0 794V851Q0 880 28 880H69Z" />
<glyph unicode="&#xd0;" horiz-adv-x="678" d="M342 396V331H18V396H342ZM340 699Q418 699 472 682T560 624T609 515T624 345Q624 244 609 176T561 67T473 9T340 -9Q265 -9 201 -7T80 0L132 96Q172 94 224 93T340 91Q398 91 431 113T479 191T493 345Q493 443 479
498T432 577T340 600Q278 600 230 599T135 598L80 690Q137 694 200 696T340 699ZM205 690V0H80V690H205Z" />
<glyph unicode="&#xd1;" horiz-adv-x="715" d="M638 690V47Q638 0 592 0H507Q486 0 475 9T455 38L246 454Q236 476 224 502T205 553H192Q194 528 195 503T197 452V0H77V643Q77 690 123 690H206Q227 690 238 681T258 652L461 247Q473 225 485 198T509 142H524Q522
171 521 198T519 253V690H638ZM281 891Q305 889 324 883T361 867T397 851T436 840Q463 836 471 847T479 886H533Q541 822 518 789T453 758Q419 761 393 772T343 796T296 811Q270 814 263 802T255 761H201Q195 807 205 836T235 879T281 891Z" />
<glyph unicode="&#xd2;" horiz-adv-x="679" d="M339 703Q419 703 474 686T562 627T611 517T626 345Q626 243 611 174T563 63T474 5T339 -13Q261 -13 206 4T117 63T68 173T53 345Q53 448 68 517T117 627T206 685T339 703ZM339 601Q280 601 247 578T199 499T185
345Q185 247 199 192T246 113T339 89Q399 89 432 112T480 191T494 345Q494 443 480 498T433 577T339 601ZM221 931L410 784L373 731L163 846L221 931Z" />
<glyph unicode="&#xd3;" horiz-adv-x="679" d="M339 703Q419 703 474 686T562 627T611 517T626 345Q626 243 611 174T563 63T474 5T339 -13Q261 -13 206 4T117 63T68 173T53 345Q53 448 68 517T117 627T206 685T339 703ZM339 601Q280 601 247 578T199 499T185
345Q185 247 199 192T246 113T339 89Q399 89 432 112T480 191T494 345Q494 443 480 498T433 577T339 601ZM450 937L508 851L297 736L260 789L450 937Z" />
<glyph unicode="&#xd4;" horiz-adv-x="679" d="M339 703Q419 703 474 686T562 627T611 517T626 345Q626 243 611 174T563 63T474 5T339 -13Q261 -13 206 4T117 63T68 173T53 345Q53 448 68 517T117 627T206 685T339 703ZM339 601Q280 601 247 578T199 499T185
345Q185 247 199 192T246 113T339 89Q399 89 432 112T480 191T494 345Q494 443 480 498T433 577T339 601ZM385 906L518 775L483 729L345 825H337L198 729L163 778L297 906H385Z" />
<glyph unicode="&#xd5;" horiz-adv-x="679" d="M339 703Q419 703 474 686T562 627T611 517T626 345Q626 243 611 174T563 63T474 5T339 -13Q261 -13 206 4T117 63T68 173T53 345Q53 448 68 517T117 627T206 685T339 703ZM339 601Q280 601 247 578T199 499T185
345Q185 247 199 192T246 113T339 89Q399 89 432 112T480 191T494 345Q494 443 480 498T433 577T339 601ZM252 891Q276 889 295 883T332 867T368 851T407 840Q434 836 442 847T450 886H504Q512 822 489 789T424 758Q390 761 364 772T314 796T267 811Q241 814 234
802T226 761H172Q166 807 176 836T206 879T252 891Z" />
<glyph unicode="&#xd6;" horiz-adv-x="679" d="M339 703Q419 703 474 686T562 627T611 517T626 345Q626 243 611 174T563 63T474 5T339 -13Q261 -13 206 4T117 63T68 173T53 345Q53 448 68 517T117 627T206 685T339 703ZM339 601Q280 601 247 578T199 499T185
345Q185 247 199 192T246 113T339 89Q399 89 432 112T480 191T494 345Q494 443 480 498T433 577T339 601ZM450 880Q478 880 478 851V794Q478 766 450 766H410Q382 766 382 794V851Q382 880 410 880H450ZM270 880Q297 880 297 851V794Q297 766 270 766H229Q201 766
201 794V851Q201 880 229 880H270Z" />
<glyph unicode="&#xd7;" horiz-adv-x="490" d="M399 487L38 164L96 94L457 418L399 487ZM96 487L38 417L399 94L457 164L96 487Z" />
<glyph unicode="&#xd8;" horiz-adv-x="679" d="M497 752L547 731L175 -62L127 -40L497 752ZM339 703Q419 703 474 686T562 627T611 517T626 345Q626 243 611 174T563 63T474 5T339 -13Q261 -13 206 4T117 63T68 173T53 345Q53 448 68 517T117 627T206 685T339
703ZM339 601Q280 601 247 578T199 499T185 345Q185 247 199 192T246 113T339 89Q399 89 432 112T480 191T494 345Q494 443 480 498T433 577T339 601Z" />
<glyph unicode="&#xd9;" horiz-adv-x="677" d="M605 690V270Q605 167 580 105T498 15T345 -13Q245 -13 185 15T99 105T72 270V690H197V270Q197 202 210 162T255 106T339 89Q392 89 422 105T466 162T480 270V690H605ZM220 931L409 784L372 731L162 846L220 931Z" />
<glyph unicode="&#xda;" horiz-adv-x="677" d="M605 690V270Q605 167 580 105T498 15T345 -13Q245 -13 185 15T99 105T72 270V690H197V270Q197 202 210 162T255 106T339 89Q392 89 422 105T466 162T480 270V690H605ZM449 931L507 845L296 730L259 783L449 931Z" />
<glyph unicode="&#xdb;" horiz-adv-x="677" d="M605 690V270Q605 167 580 105T498 15T345 -13Q245 -13 185 15T99 105T72 270V690H197V270Q197 202 210 162T255 106T339 89Q392 89 422 105T466 162T480 270V690H605ZM384 906L517 775L482 729L344 825H336L197
729L162 778L296 906H384Z" />
<glyph unicode="&#xdc;" horiz-adv-x="677" d="M605 690V270Q605 167 580 105T498 15T345 -13Q245 -13 185 15T99 105T72 270V690H197V270Q197 202 210 162T255 106T339 89Q392 89 422 105T466 162T480 270V690H605ZM450 880Q478 880 478 851V794Q478 766 450
766H410Q382 766 382 794V851Q382 880 410 880H450ZM270 880Q297 880 297 851V794Q297 766 270 766H229Q201 766 201 794V851Q201 880 229 880H270Z" />
<glyph unicode="&#xdd;" horiz-adv-x="594" d="M588 690L355 226H239L5 690H136L264 420Q273 401 279 379T293 337H301Q307 357 314 379T329 420L457 690H588ZM359 305V0H234V305H359ZM407 924L465 838L254 723L217 776L407 924Z" />
<glyph unicode="&#xde;" horiz-adv-x="604" d="M328 570Q418 570 470 551T544 483T566 347Q566 260 545 212T475 144T344 125Q300 125 259 128T182 136T122 146T87 156L90 223Q146 223 206 223T326 223Q369 224 394 234T429 270T440 347Q440 398 430 425T394 462T326
473Q239 473 177 472T91 468L77 562Q117 566 152 567T228 569T328 570ZM202 690V0H77V690H202Z" />
<glyph unicode="&#xdf;" horiz-adv-x="693" d="M349 727Q437 727 488 714T562 669T584 585Q584 560 578 540T557 501T509 459Q484 442 466 430T437 406T427 372Q427 349 444 336T490 307L579 262Q610 244 628 228T656 189T665 130Q665 76 646 45T586 2T480 -11Q445
-11 405 -9T314 0L321 83Q356 80 389 80T454 79Q487 80 506 83T535 98T545 135Q545 155 537 167T512 190T474 213L390 252Q355 272 334 298T312 366Q312 400 326 420T364 457T417 494Q448 517 460 534T472 578Q472 599 462 611T427 630T352 637Q305 637 278 629T241
600T230 536V0H108V550Q108 606 123 640T169 694T244 720T349 727ZM169 491V406H22V488L111 491H169Z" />
<glyph unicode="&#xe0;" horiz-adv-x="561" d="M315 503Q374 503 415 488T476 435T497 333V0H401L384 106L375 120V334Q375 373 357 390T288 408Q250 408 193 405T77 397L66 480Q101 487 145 492T234 500T315 503ZM445 302L444 227H219Q189 226 176 211T163 170V143Q163
113 179 98T229 83Q256 83 289 93T354 125T413 175V112Q403 97 384 77T338 36T275 3T196 -10Q152 -10 117 5T62 51T42 127V179Q42 237 80 269T186 302H445ZM162 754L351 607L314 554L104 669L162 754Z" />
<glyph unicode="&#xe1;" horiz-adv-x="561" d="M315 503Q374 503 415 488T476 435T497 333V0H401L384 106L375 120V334Q375 373 357 390T288 408Q250 408 193 405T77 397L66 480Q101 487 145 492T234 500T315 503ZM445 302L444 227H219Q189 226 176 211T163 170V143Q163
113 179 98T229 83Q256 83 289 93T354 125T413 175V112Q403 97 384 77T338 36T275 3T196 -10Q152 -10 117 5T62 51T42 127V179Q42 237 80 269T186 302H445ZM391 754L449 668L238 553L201 606L391 754Z" />
<glyph unicode="&#xe2;" horiz-adv-x="561" d="M315 503Q374 503 415 488T476 435T497 333V0H401L384 106L375 120V334Q375 373 357 390T288 408Q250 408 193 405T77 397L66 480Q101 487 145 492T234 500T315 503ZM445 302L444 227H219Q189 226 176 211T163 170V143Q163
113 179 98T229 83Q256 83 289 93T354 125T413 175V112Q403 97 384 77T338 36T275 3T196 -10Q152 -10 117 5T62 51T42 127V179Q42 237 80 269T186 302H445ZM326 728L459 597L424 551L286 647H278L139 551L104 600L238 728H326Z" />
<glyph unicode="&#xe3;" horiz-adv-x="561" d="M315 503Q374 503 415 488T476 435T497 333V0H401L384 106L375 120V334Q375 373 357 390T288 408Q250 408 193 405T77 397L66 480Q101 487 145 492T234 500T315 503ZM445 302L444 227H219Q189 226 176 211T163 170V143Q163
113 179 98T229 83Q256 83 289 93T354 125T413 175V112Q403 97 384 77T338 36T275 3T196 -10Q152 -10 117 5T62 51T42 127V179Q42 237 80 269T186 302H445ZM194 714Q218 712 237 706T274 690T310 674T349 663Q376 659 384 670T392 709H446Q454 645 431 612T366
581Q332 584 306 595T256 619T209 634Q183 637 176 625T168 584H114Q108 630 118 659T148 702T194 714Z" />
<glyph unicode="&#xe4;" horiz-adv-x="561" d="M315 503Q374 503 415 488T476 435T497 333V0H401L384 106L375 120V334Q375 373 357 390T288 408Q250 408 193 405T77 397L66 480Q101 487 145 492T234 500T315 503ZM445 302L444 227H219Q189 226 176 211T163 170V143Q163
113 179 98T229 83Q256 83 289 93T354 125T413 175V112Q403 97 384 77T338 36T275 3T196 -10Q152 -10 117 5T62 51T42 127V179Q42 237 80 269T186 302H445ZM392 703Q420 703 420 674V617Q420 589 392 589H352Q324 589 324 617V674Q324 703 352 703H392ZM212 703Q239
703 239 674V617Q239 589 212 589H171Q143 589 143 617V674Q143 703 171 703H212Z" />
<glyph unicode="&#xe5;" horiz-adv-x="561" d="M315 503Q374 503 415 488T476 435T497 333V0H401L384 106L375 120V334Q375 373 357 390T288 408Q250 408 193 405T77 397L66 480Q101 487 145 492T234 500T315 503ZM445 302L444 227H219Q189 226 176 211T163 170V143Q163
113 179 98T229 83Q256 83 289 93T354 125T413 175V112Q403 97 384 77T338 36T275 3T196 -10Q152 -10 117 5T62 51T42 127V179Q42 237 80 269T186 302H445ZM282 763Q312 763 338 748T379 709T395 652Q395 622 380 597T339 556T282 541Q251 541 225 556T184 596T168
652Q168 684 183 708T225 748T282 763ZM281 709Q259 709 243 693T227 652Q227 627 243 612T281 596Q305 596 321 611T337 652Q337 677 321 693T281 709Z" />
<glyph unicode="&#xe6;" horiz-adv-x="875" d="M611 503Q730 503 781 462T834 339Q835 294 820 264T773 218T688 203H419V278H656Q692 278 704 295T715 340Q715 380 693 396T616 413Q569 413 543 400T507 353T496 255Q496 187 509 150T551 100T633 86Q669 86 717
89T811 97L822 20Q796 9 761 2T688 -8T618 -12Q529 -12 475 14T397 98T372 245Q372 342 396 398T473 479T611 503ZM443 301L442 227H218Q188 226 176 211T163 170V143Q163 113 179 98T228 83Q256 83 288 93T354 125T414 178L417 111Q407 96 388 76T340 35T276 3T195
-10Q151 -10 117 5T62 51T42 127V179Q42 237 80 269T185 301H443ZM313 503Q372 503 412 488T473 435T494 333V236H372V334Q372 373 354 390T286 408Q248 408 191 405T77 397L65 480Q100 487 144 492T232 500T313 503Z" />
<glyph unicode="&#xe7;" horiz-adv-x="500" d="M288 503Q313 503 343 501T404 493T460 476L446 400Q409 402 373 403T309 404Q258 404 229 391T186 343T173 246Q173 184 186 150T228 101T309 87Q324 87 348 88T401 91T457 96L469 18Q430 2 382 -5T287 -12Q199
-12 146 13T70 94T46 246Q46 341 70 397T147 478T288 503ZM227 -53Q273 -48 301 -51T344 -70T357 -118Q355 -164 330 -195T264 -240T170 -247L186 -192Q225 -193 250 -177T277 -128Q278 -112 266 -108T215 -102L227 -53Z" />
<glyph unicode="&#xe8;" horiz-adv-x="552" d="M287 503Q406 503 458 462T511 339Q512 272 480 238T372 203H92V278H339Q373 278 382 296T392 340Q391 381 369 397T292 413Q245 413 219 400T183 353T172 255Q172 187 185 150T228 100T308 86Q345 86 393 89T487
97L499 20Q472 9 437 2T365 -8T294 -12Q204 -12 150 14T71 98T46 245Q46 342 70 398T148 479T287 503ZM170 752L359 605L322 552L112 667L170 752Z" />
<glyph unicode="&#xe9;" horiz-adv-x="552" d="M287 503Q406 503 458 462T511 339Q512 272 480 238T372 203H92V278H339Q373 278 382 296T392 340Q391 381 369 397T292 413Q245 413 219 400T183 353T172 255Q172 187 185 150T228 100T308 86Q345 86 393 89T487
97L499 20Q472 9 437 2T365 -8T294 -12Q204 -12 150 14T71 98T46 245Q46 342 70 398T148 479T287 503ZM400 752L458 666L247 551L210 604L400 752Z" />
<glyph unicode="&#xea;" horiz-adv-x="552" d="M287 503Q406 503 458 462T511 339Q512 272 480 238T372 203H92V278H339Q373 278 382 296T392 340Q391 381 369 397T292 413Q245 413 219 400T183 353T172 255Q172 187 185 150T228 100T308 86Q345 86 393 89T487
97L499 20Q472 9 437 2T365 -8T294 -12Q204 -12 150 14T71 98T46 245Q46 342 70 398T148 479T287 503ZM335 726L468 595L433 549L295 645H287L148 549L113 598L247 726H335Z" />
<glyph unicode="&#xeb;" horiz-adv-x="552" d="M287 503Q406 503 458 462T511 339Q512 272 480 238T372 203H92V278H339Q373 278 382 296T392 340Q391 381 369 397T292 413Q245 413 219 400T183 353T172 255Q172 187 185 150T228 100T308 86Q345 86 393 89T487
97L499 20Q472 9 437 2T365 -8T294 -12Q204 -12 150 14T71 98T46 245Q46 342 70 398T148 479T287 503ZM400 701Q428 701 428 672V615Q428 587 400 587H360Q332 587 332 615V672Q332 701 360 701H400ZM220 701Q247 701 247 672V615Q247 587 220 587H179Q151 587
151 615V672Q151 701 179 701H220Z" />
<glyph unicode="&#xec;" horiz-adv-x="265" d="M193 491V0H72V491H193ZM268 753L457 606L420 553L210 668L268 753Z" />
<glyph unicode="&#xed;" horiz-adv-x="265" d="M193 491V0H72V491H193ZM242 753L300 667L89 552L52 605L242 753Z" />
<glyph unicode="&#xee;" horiz-adv-x="265" d="M193 491V0H72V491H193ZM432 726L565 595L530 549L392 645H384L245 549L210 598L344 726H432Z" />
<glyph unicode="&#xef;" horiz-adv-x="265" d="M193 491V0H72V491H193ZM497 701Q525 701 525 672V615Q525 587 497 587H457Q429 587 429 615V672Q429 701 457 701H497ZM317 701Q344 701 344 672V615Q344 587 317 587H276Q248 587 248 615V672Q248 701 276 701H317Z" />
<glyph unicode="&#xf0;" horiz-adv-x="572" d="M134 698Q198 702 256 689T362 646T445 566T499 448T518 285Q518 213 507 158T470 64T397 7T281 -13Q162 -13 105 42T47 218Q47 293 67 344T134 422T258 449Q284 449 316 444T380 423T438 377L431 326Q396 343 360
350T281 358Q241 358 218 344T184 298T174 219Q174 141 199 111T283 80Q331 80 354 102T384 170T392 288Q392 372 379 431T341 527T284 585T209 612T122 616L134 698ZM418 718L455 673L240 501L203 545L418 718Z" />
<glyph unicode="&#xf1;" horiz-adv-x="593" d="M391 503Q528 503 528 368V0H407V331Q407 371 393 386T346 401Q309 401 270 385T176 337L171 410Q226 455 281 479T391 503ZM167 491L179 395L189 381V0H68V491H167ZM218 711Q242 709 261 703T298 687T334 671T373
660Q400 656 408 667T416 706H470Q478 642 455 609T390 578Q356 581 330 592T280 616T233 631Q207 634 200 622T192 581H138Q132 627 142 656T172 699T218 711Z" />
<glyph unicode="&#xf2;" horiz-adv-x="580" d="M290 503Q380 503 433 478T510 396T534 245Q534 151 511 95T434 13T290 -13Q202 -13 149 12T71 94T47 245Q47 339 71 396T148 478T290 503ZM290 411Q246 411 221 397T184 346T173 245Q173 180 184 144T220 94T290
80Q335 80 361 94T397 144T408 245Q408 310 398 346T361 396T290 411ZM172 746L361 599L324 546L114 661L172 746Z" />
<glyph unicode="&#xf3;" horiz-adv-x="580" d="M290 503Q380 503 433 478T510 396T534 245Q534 151 511 95T434 13T290 -13Q202 -13 149 12T71 94T47 245Q47 339 71 396T148 478T290 503ZM290 411Q246 411 221 397T184 346T173 245Q173 180 184 144T220 94T290
80Q335 80 361 94T397 144T408 245Q408 310 398 346T361 396T290 411ZM401 746L459 660L248 545L211 598L401 746Z" />
<glyph unicode="&#xf4;" horiz-adv-x="580" d="M290 503Q380 503 433 478T510 396T534 245Q534 151 511 95T434 13T290 -13Q202 -13 149 12T71 94T47 245Q47 339 71 396T148 478T290 503ZM290 411Q246 411 221 397T184 346T173 245Q173 180 184 144T220 94T290
80Q335 80 361 94T397 144T408 245Q408 310 398 346T361 396T290 411ZM336 976L469 845L434 799L296 895H288L149 799L114 848L248 976H336Z" />
<glyph unicode="&#xf5;" horiz-adv-x="580" d="M290 503Q380 503 433 478T510 396T534 245Q534 151 511 95T434 13T290 -13Q202 -13 149 12T71 94T47 245Q47 339 71 396T148 478T290 503ZM290 411Q246 411 221 397T184 346T173 245Q173 180 184 144T220 94T290
80Q335 80 361 94T397 144T408 245Q408 310 398 346T361 396T290 411ZM204 961Q228 959 247 953T284 937T320 921T359 910Q386 906 394 917T402 956H456Q464 892 441 859T376 828Q342 831 316 842T266 866T219 881Q193 884 186 872T178 831H124Q118 877 128 906T158
949T204 961Z" />
<glyph unicode="&#xf6;" horiz-adv-x="580" d="M290 503Q380 503 433 478T510 396T534 245Q534 151 511 95T434 13T290 -13Q202 -13 149 12T71 94T47 245Q47 339 71 396T148 478T290 503ZM290 411Q246 411 221 397T184 346T173 245Q173 180 184 144T220 94T290
80Q335 80 361 94T397 144T408 245Q408 310 398 346T361 396T290 411ZM401 951Q429 951 429 922V865Q429 837 401 837H361Q333 837 333 865V922Q333 951 361 951H401ZM221 951Q248 951 248 922V865Q248 837 221 837H180Q152 837 152 865V922Q152 951 180 951H221Z"
/>
<glyph unicode="&#xf7;" horiz-adv-x="561" d="M505 338V250H55V338H505ZM294 176Q319 176 329 167T339 131V92Q339 66 329 57T294 47H264Q239 47 230 56T220 92V131Q220 157 229 166T264 176H294ZM294 540Q319 540 329 530T339 495V455Q339 430 329 421T294 411H264Q239
411 230 420T220 455V495Q220 520 229 530T264 540H294Z" />
<glyph unicode="&#xf8;" horiz-adv-x="580" d="M414 571L455 551L162 -80L121 -60L414 571ZM290 503Q380 503 433 478T510 396T534 245Q534 151 511 95T434 13T290 -13Q202 -13 149 12T71 94T47 245Q47 339 71 396T148 478T290 503ZM290 411Q246 411 221 397T184
346T173 245Q173 180 184 144T220 94T290 80Q335 80 361 94T397 144T408 245Q408 310 398 346T361 396T290 411Z" />
<glyph unicode="&#xf9;" horiz-adv-x="583" d="M186 491V159Q185 122 200 106T251 90Q286 90 321 105T406 150L418 78Q362 33 310 10T202 -13Q65 -13 65 122V491H186ZM515 491V0H419L406 95L394 109V491H515ZM171 754L360 607L323 554L113 669L171 754Z" />
<glyph unicode="&#xfa;" horiz-adv-x="583" d="M186 491V159Q185 122 200 106T251 90Q286 90 321 105T406 150L418 78Q362 33 310 10T202 -13Q65 -13 65 122V491H186ZM515 491V0H419L406 95L394 109V491H515ZM401 754L459 668L248 553L211 606L401 754Z" />
<glyph unicode="&#xfb;" horiz-adv-x="583" d="M186 491V159Q185 122 200 106T251 90Q286 90 321 105T406 150L418 78Q362 33 310 10T202 -13Q65 -13 65 122V491H186ZM515 491V0H419L406 95L394 109V491H515ZM335 728L468 597L433 551L295 647H287L148 551L113
600L247 728H335Z" />
<glyph unicode="&#xfc;" horiz-adv-x="583" d="M186 491V159Q185 122 200 106T251 90Q286 90 321 105T406 150L418 78Q362 33 310 10T202 -13Q65 -13 65 122V491H186ZM515 491V0H419L406 95L394 109V491H515ZM401 703Q429 703 429 674V617Q429 589 401 589H361Q333
589 333 617V674Q333 703 361 703H401ZM221 703Q248 703 248 674V617Q248 589 221 589H180Q152 589 152 617V674Q152 703 180 703H221Z" />
<glyph unicode="&#xfd;" horiz-adv-x="550" d="M537 491L353 -15Q340 -50 321 -84T271 -147T200 -191T105 -203L95 -131Q155 -114 188 -85T241 -11L268 53Q277 75 285 103T300 153L407 491H537ZM141 491L250 153Q255 136 259 119T266 84H291L253 0H221Q207 0 196
8T181 30L12 491H141ZM388 753L446 667L235 552L198 605L388 753Z" />
<glyph unicode="&#xfe;" horiz-adv-x="587" d="M362 503Q458 503 498 439T539 241Q539 145 520 89T460 10T358 -13Q304 -13 253 2T159 50L175 111Q214 96 246 87T314 77Q350 77 372 91T404 140T414 241Q414 307 404 343T373 393T317 407Q283 407 252 393T185 352L163
415Q200 454 248 478T362 503ZM189 700V550Q189 520 188 491T184 431L189 419V65L184 53Q187 24 188 -5T189 -66V-195H68V700H189Z" />
<glyph unicode="&#xff;" horiz-adv-x="550" d="M537 491L353 -15Q340 -50 321 -84T271 -147T200 -191T105 -203L95 -131Q155 -114 188 -85T241 -11L268 53Q277 75 285 103T300 153L407 491H537ZM141 491L250 153Q255 136 259 119T266 84H291L253 0H221Q207 0 196
8T181 30L12 491H141ZM388 701Q416 701 416 672V615Q416 587 388 587H348Q320 587 320 615V672Q320 701 348 701H388ZM208 701Q235 701 235 672V615Q235 587 208 587H167Q139 587 139 615V672Q139 701 167 701H208Z" />
<glyph unicode="&#x2013;" horiz-adv-x="574" d="M510 295V213H64V295H510Z" />
<glyph unicode="&#x2014;" horiz-adv-x="874" d="M810 295V213H64V295H810Z" />
<glyph unicode="&#x2018;" horiz-adv-x="218" d="M96 468Q73 468 65 476T56 508V566Q56 599 61 626T75 678T97 724L145 710Q139 680 137 654T133 594Q166 594 166 559L165 508Q164 485 155 477T124 468H96Z" />
<glyph unicode="&#x2019;" horiz-adv-x="215" d="M121 716Q144 716 152 707T161 676V617Q161 584 156 557T142 505T120 459L72 473Q78 503 80 529T84 589Q52 589 51 624L52 676Q53 698 62 707T93 716H121Z" />
<glyph unicode="&#x201a;" horiz-adv-x="229" d="M129 132Q152 132 160 123T170 90V30Q170 -4 165 -32T150 -85T127 -134L79 -119Q86 -88 88 -61T91 1Q59 1 59 38V90Q60 114 70 123T101 132H129Z" />
<glyph unicode="&#x201c;" horiz-adv-x="384" d="M96 468Q73 468 65 476T56 508V566Q56 599 61 626T75 678T97 724L145 710Q139 680 137 654T133 594Q166 594 166 559L165 508Q164 485 155 477T124 468H96ZM262 468Q239 468 231 476T222 508V566Q223 599 227 626T241
678T264 724L312 710Q305 680 303 654T300 594Q332 594 332 559V508Q331 485 322 477T290 468H262Z" />
<glyph unicode="&#x201d;" horiz-adv-x="381" d="M287 716Q310 716 318 707T328 676V617Q327 584 322 557T308 505T286 459L238 473Q244 503 247 529T250 589Q218 589 218 624V676Q219 698 228 707T260 716H287ZM121 716Q144 716 152 707T161 676V617Q161 584
156 557T142 505T120 459L72 473Q78 503 80 529T84 589Q52 589 51 624L52 676Q53 698 62 707T93 716H121Z" />
<glyph unicode="&#x201e;" horiz-adv-x="395" d="M295 123Q318 123 326 115T335 83V24Q334 -8 330 -35T316 -87T293 -134L245 -119Q252 -90 254 -64T257 -4Q225 -4 225 32V83Q226 106 235 114T267 123H295ZM128 123Q151 123 159 115T169 83V24Q168 -8 163 -35T149
-87T127 -134L79 -119Q85 -90 88 -64T91 -4Q59 -4 59 32V83Q60 106 69 114T101 123H128Z" />
<glyph unicode="&#x2022;" horiz-adv-x="368" d="M193 371Q246 371 266 351T287 277V263Q287 207 267 186T193 164H180Q123 164 102 185T81 263V277Q81 330 102 350T180 371H193Z" />
<glyph unicode="&#x2039;" horiz-adv-x="294" d="M191 462L255 421L140 251L256 77L192 35L32 238V264L191 462Z" />
<glyph unicode="&#x203a;" horiz-adv-x="296" d="M102 462L263 264V238L102 35L39 77L154 251L39 421L102 462Z" />
</font>
</defs>
</svg>
