<?xml version="1.0" standalone="no"?>
<!DOCTYPE svg PUBLIC "-//W3C//DTD SVG 1.1//EN" "http://www.w3.org/Graphics/SVG/1.1/DTD/svg11.dtd">
<svg xmlns="http://www.w3.org/2000/svg">
<defs >
<font id="Exo2" horiz-adv-x="559" ><font-face
    font-family="Exo 2"
    units-per-em="1000"
    panose-1="0 0 0 0 0 0 0 0 0 0"
    ascent="999"
    descent="-201"
    alphabetic="0" />
<glyph unicode=" " horiz-adv-x="223" />
<glyph unicode="!" horiz-adv-x="271" d="M234 695L191 389L158 211H91L107 389L150 695H234ZM121 118Q138 118 145 110T149 85L142 30Q140 15 132 8T109 0H86Q52 0 56 33L64 89Q68 118 98 118H121Z" />
<glyph unicode="&quot;" horiz-adv-x="350" d="M337 690L302 475H243L268 690H337ZM193 690L157 475H99L124 690H193Z" />
<glyph unicode="#" horiz-adv-x="682" d="M616 690L399 0H332L549 690H616ZM593 268L576 213H31L49 268H593ZM365 690L148 0H81L298 690H365ZM669 503L650 448H106L125 503H669Z" />
<glyph unicode="$" horiz-adv-x="564" d="M334 702Q384 701 436 697T538 682L528 618Q495 620 463 621T398 622T331 623Q297 623 271 622T226 611T195 581T178 520Q174 486 178 466T199 435T247 411L382 361Q434 342 461 317T495 255T496 167Q486 92 457 54T374
2T239 -12Q208 -12 153 -9T29 7L40 72Q99 70 135 69T194 67T239 67Q297 67 331 74T384 105T408 176Q413 212 408 231T387 263T339 286L201 337Q153 355 126 381T91 444T90 529Q98 587 117 621T168 673T240 696T334 702ZM274 353L315 351L212 -127H170L274 353ZM417
799L321 351L280 353L375 799H417Z" />
<glyph unicode="%" horiz-adv-x="894" d="M758 690L214 0H148L692 690H758ZM259 649Q218 649 195 634T159 585T138 495Q131 440 134 408T155 361T207 347Q249 347 272 362T309 411T329 501Q337 556 334 588T313 635T259 649ZM257 703Q318 703 351 682T394 615T394
495Q384 423 363 379T306 314T210 293Q150 293 117 314T74 382T74 501Q85 574 105 618T162 682T257 703ZM700 346Q659 346 636 331T600 282T579 191Q572 136 575 104T595 57T648 43Q690 43 713 58T750 107T770 198Q778 253 775 285T754 332T700 346ZM698 400Q759
400 792 379T835 311T834 191Q824 119 803 75T746 11T650 -10Q590 -10 557 11T514 79T515 198Q525 271 545 315T603 379T698 400Z" />
<glyph unicode="&amp;" horiz-adv-x="755" d="M380 700Q421 700 460 696T549 679L534 613Q502 621 462 624T382 628Q323 628 287 619T232 584T205 507Q198 461 207 436T245 401T326 391H727L716 324H317Q260 324 224 313T167 272T137 186Q131 150 134 127T151
90T187 71T244 65Q330 65 386 94T476 174Q520 236 531 324T541 520H619Q621 401 606 306T547 141Q516 90 471 57T368 7T238 -11Q162 -11 117 7T54 66T44 178Q52 234 72 272T128 332T216 356L217 361Q174 364 150 384T118 439T119 524Q132 599 164 636T250 687T380
700Z" />
<glyph unicode="&apos;" horiz-adv-x="206" d="M193 690L157 475H99L124 690H193Z" />
<glyph unicode="(" horiz-adv-x="356" d="M383 791L393 749Q287 700 225 594T139 310Q123 199 130 114T171 -30T265 -125L254 -164Q126 -111 78 7T56 317Q83 508 161 623T383 791Z" />
<glyph unicode=")" horiz-adv-x="356" d="M108 789Q236 738 285 621T307 307Q279 117 201 2T-21 -166L-30 -124Q77 -72 138 37T224 316Q240 428 233 513T192 658T97 750L108 789Z" />
<glyph unicode="*" horiz-adv-x="448" d="M306 691L274 530L358 401L315 371L254 494L160 372L120 403L239 530L253 691H306ZM108 601L225 555L222 533L209 519L88 553L108 601ZM421 601L432 549L303 519L294 533L295 555L421 601Z" />
<glyph unicode="+" horiz-adv-x="547" d="M337 507L278 90H213L271 507H337ZM498 331L489 267H51L60 331H498Z" />
<glyph unicode="," horiz-adv-x="227" d="M104 118Q121 118 127 111T131 85L122 21Q119 -4 111 -30T92 -83T66 -133L24 -118Q34 -88 42 -61T57 2Q43 1 37 8T31 29L39 88Q43 105 50 111T78 118H104Z" />
<glyph unicode="-" horiz-adv-x="447" d="M374 285L366 220H61L70 285H374Z" />
<glyph unicode="." horiz-adv-x="225" d="M101 118Q119 118 125 110T130 85L123 30Q121 15 113 8T89 0H61Q27 0 31 33L39 89Q43 118 73 118H101Z" />
<glyph unicode="/" horiz-adv-x="524" d="M551 690L52 -66H-21L478 690H551Z" />
<glyph unicode="0" horiz-adv-x="601" d="M266 -13Q197 -13 151 11T83 85T60 213Q60 277 67 346T93 478T144 592T227 673T349 703Q420 703 465 679T533 606T556 479Q556 412 550 342T525 209T475 95T391 16T266 -13ZM270 64Q328 64 365 91T424 163T456 262T469
373T472 476Q472 557 440 591T343 626Q288 626 252 599T194 527T162 428T148 317T144 214Q144 133 175 99T270 64Z" />
<glyph unicode="1" horiz-adv-x="395" d="M339 690L242 0H155L232 549Q234 564 237 579T244 609L68 554L66 619L251 690H339Z" />
<glyph unicode="2" horiz-adv-x="557" d="M322 702Q380 702 424 693T494 656T520 577Q520 523 500 477T443 387T362 300L136 81Q162 83 190 84T243 85H478L466 0H13L21 57Q23 68 26 77T36 94L269 320Q311 360 348 401T407 484T430 566Q430 592 417 604T377 620T315
624Q282 624 252 623T189 619T112 608L111 676Q160 687 196 692T262 700T322 702Z" />
<glyph unicode="3" horiz-adv-x="550" d="M309 703Q416 703 460 669T505 567Q505 521 491 476T449 400T380 365L379 361Q429 352 454 320T480 235Q480 158 449 104T359 19T215 -13Q172 -14 121 -10T14 5L25 73Q59 71 90 68T151 64T209 66Q298 72 345 116T392 237Q392
262 381 282T344 315T273 328L143 330L152 397H278Q352 398 386 438T421 556Q421 597 394 611T290 625Q253 625 205 623T119 617L116 685Q171 694 220 698T309 703Z" />
<glyph unicode="4" horiz-adv-x="610" d="M384 690L134 280Q122 261 127 251T150 241H561L552 178L459 169H110Q76 169 56 186T32 231T45 284L295 690H384ZM516 558L438 0H355L417 444L449 558H516Z" />
<glyph unicode="5" horiz-adv-x="533" d="M515 690L500 615H210L174 427L245 421Q316 416 366 399T442 345T468 249Q468 131 402 63T215 -12Q174 -14 123 -9T16 13L32 84Q77 73 119 69T196 66Q286 71 334 115T383 247Q383 286 364 307T302 338T192 350L127 355Q110
357 100 369T93 400L149 690H515Z" />
<glyph unicode="6" horiz-adv-x="569" d="M376 702Q390 702 415 702T470 698T526 687L509 623Q488 625 468 626T425 627T372 627Q325 627 291 615T231 571T187 480T156 325Q146 252 143 202T148 122T185 77T265 63Q324 63 360 91T412 169T428 286Q428 331 409
354T330 378Q278 378 229 352T119 258L118 315Q157 365 192 394T265 437T350 450Q433 450 472 413T511 309Q511 209 485 137T402 27T254 -12Q187 -12 145 5T82 62T59 167T70 328Q87 446 111 520T172 633T259 687T376 702Z" />
<glyph unicode="7" horiz-adv-x="510" d="M481 690Q513 690 523 674T519 628L216 0H128L401 566Q408 579 415 592T430 617L84 615L90 690H481Z" />
<glyph unicode="8" horiz-adv-x="606" d="M354 700Q443 700 489 680T548 620T553 515Q547 471 533 437T494 383T433 359L431 355Q473 351 495 327T522 263T519 169Q511 107 487 68T410 10T265 -10Q178 -10 128 9T60 70T51 175Q59 228 74 267T116 330T189 358L191
362Q141 368 123 410T115 521Q124 584 147 623T219 682T354 700ZM306 323Q260 323 230 318T182 298T153 258T136 187Q130 141 138 115T178 77T273 65Q333 65 367 77T417 118T439 194Q445 234 443 259T426 298T382 317T306 323ZM348 629Q289 629 258 618T214 580T193
507Q187 461 194 436T232 402T320 393Q363 393 390 398T434 417T458 454T472 513Q479 557 472 582T437 618T348 629Z" />
<glyph unicode="9" horiz-adv-x="569" d="M333 702Q401 702 443 684T505 624T526 516T512 350Q494 237 470 166T409 56T323 3T202 -12Q174 -12 134 -9T47 4L60 68Q82 66 104 65T150 64T197 63Q255 65 293 78T356 124T397 214T428 359Q441 435 444 486T438 569T402
613T327 627Q270 627 237 610T187 556T162 461Q155 407 161 374T192 325T262 310Q298 311 327 322T389 359T464 432L465 379Q428 327 394 297T325 254T245 240Q190 239 155 255T101 302T78 375T80 468Q88 531 106 576T156 648T232 689T333 702Z" />
<glyph unicode=":" horiz-adv-x="235" d="M150 440Q168 440 174 432T179 407L172 352Q170 337 162 330T138 322H110Q76 322 80 355L88 411Q92 440 122 440H150ZM105 118Q123 118 129 110T134 85L127 30Q125 15 117 8T93 0H65Q31 0 35 33L43 89Q47 118 77 118H105Z" />
<glyph unicode=";" horiz-adv-x="239" d="M151 440Q169 440 175 432T180 407L173 352Q171 337 163 330T139 322H111Q77 322 81 355L89 411Q93 440 123 440H151ZM111 118Q128 118 134 111T138 85L129 21Q126 -4 118 -30T99 -83T73 -133L31 -118Q41 -88 49 -61T64
2Q50 1 44 8T38 29L46 88Q50 105 57 111T85 118H111Z" />
<glyph unicode="&lt;" horiz-adv-x="526" d="M487 504L477 433L125 296L438 158L429 92L47 264L56 332L487 504Z" />
<glyph unicode="=" horiz-adv-x="586" d="M531 430L522 367H84L93 430H531ZM502 219L493 155H55L64 219H502Z" />
<glyph unicode="&gt;" horiz-adv-x="526" d="M99 506L481 332L471 264L41 93L50 165L402 302L89 440L99 506Z" />
<glyph unicode="?" horiz-adv-x="499" d="M308 712Q406 712 455 673T493 554Q487 509 465 477T412 417T350 362T295 298T262 209L190 210Q197 265 219 305T270 375T327 432T377 485T402 546Q410 600 384 620T290 640Q239 640 207 639T149 636T89 630L88 691Q114
696 136 699T181 706T234 710T308 712ZM222 118Q240 118 247 110T252 85L244 30Q243 15 235 8T211 0H188Q154 0 158 33L166 88Q171 118 200 118H222Z" />
<glyph unicode="@" horiz-adv-x="772" d="M430 642Q528 643 588 632T678 588T711 489T700 314Q688 218 673 156T634 58T575 7T490 -8Q454 -8 431 2T396 32T380 79T382 140L427 428H510L462 114Q459 87 467 76T497 64Q526 64 545 77T578 119T601 198T621 321Q631
394 633 441T627 514T595 553T531 568T428 571H111L118 634Q168 637 221 638T327 641T430 642ZM295 451Q348 451 399 445T510 428L473 377Q412 380 379 381T324 382Q273 382 241 376T190 354T159 306T139 222Q129 161 130 126T148 75T199 60Q253 60 300 94T408
197L425 156Q395 113 361 75T283 12T181 -12Q139 -12 110 2T66 46T49 121T57 229Q69 301 88 345T137 412T205 443T295 451Z" />
<glyph unicode="A" horiz-adv-x="619" d="M412 690Q424 690 432 683T442 664L571 0H483L384 564Q382 579 380 594T376 623H346Q340 610 333 594T320 564L63 0H-30L286 667Q290 679 299 684T320 690H412ZM486 292L476 215H126L136 292H486Z" />
<glyph unicode="B" horiz-adv-x="618" d="M363 698Q445 698 494 682T562 626T571 515Q561 442 529 404T433 359L432 355Q509 348 532 299T544 169Q533 98 507 60T432 7T305 -8Q245 -8 202 -8T122 -5T45 0L67 70Q90 69 150 68T292 67Q349 67 383 77T434 114T458
190Q466 243 457 271T417 311T329 324H104L114 391H333Q383 392 414 402T463 438T486 511Q493 558 483 582T443 614T359 623Q309 623 269 623T200 623T150 621L142 690Q177 694 209 695T277 697T363 698ZM228 690L131 0H45L142 690H228Z" />
<glyph unicode="C" horiz-adv-x="566" d="M383 702Q428 702 460 700T518 694T571 681L557 615Q528 618 503 620T449 623T382 624Q331 624 295 611T232 567T189 481T160 342Q145 237 152 177T194 92T294 66Q360 66 404 69T491 77L496 10Q451 -2 405 -7T293 -12Q194
-12 139 25T67 142T68 348Q82 446 105 514T165 623T255 683T383 702Z" />
<glyph unicode="D" horiz-adv-x="662" d="M368 699Q474 699 533 666T609 554T608 342Q592 230 567 161T503 55T408 5T274 -9Q222 -9 161 -7T45 0L91 72Q132 71 184 70T273 68Q332 68 373 79T441 120T486 205T517 348Q529 433 528 487T509 570T457 611T366 623Q342
623 307 623T236 622T174 620L142 690Q176 693 217 695T297 698T368 699ZM230 690L133 0H45L142 690H230Z" />
<glyph unicode="E" horiz-adv-x="558" d="M264 691Q315 691 366 691T466 690T562 685L550 616H275Q241 616 225 600T204 548L148 139Q143 105 156 90T203 74H473L471 5Q427 2 380 1T286 0T192 -1Q116 -1 83 36T58 137L119 573Q127 629 163 660T264 691ZM113 398H480L471
330H103L113 398Z" />
<glyph unicode="F" horiz-adv-x="537" d="M268 691Q342 691 416 690T556 684L544 616H287Q249 616 231 602T208 548L131 0H43L122 569Q131 628 169 659T268 691ZM114 387H474L464 320L104 319L114 387Z" />
<glyph unicode="G" horiz-adv-x="624" d="M395 703Q430 703 463 701T530 694T593 681L580 616Q549 619 518 621T459 623T406 624Q346 624 304 612T234 570T189 485T160 342Q149 240 155 179T188 92T267 65Q305 65 336 78T397 115T462 174L471 115Q447 85 422 62T368
21T308 -4T238 -13Q166 -13 124 24T68 142T68 348Q82 456 108 525T175 633T270 687T395 703ZM573 400L516 0H453L455 108L450 128L488 400H573Z" />
<glyph unicode="H" horiz-adv-x="666" d="M231 690L134 0H45L142 690H231ZM519 406L509 330H172L183 406H519ZM636 690L539 0H452L549 690H636Z" />
<glyph unicode="I" horiz-adv-x="261" d="M231 690L134 0H45L142 690H231Z" />
<glyph unicode="J" horiz-adv-x="339" d="M312 690L234 143Q224 68 186 30T84 -9Q70 -9 53 -7T19 -2T-9 4L8 66H55Q95 66 118 86T147 143L223 690H312Z" />
<glyph unicode="K" horiz-adv-x="593" d="M618 690L378 404Q368 392 357 381T331 360V356Q340 346 348 333T364 306L534 0H434L236 362L511 690H618ZM230 690L199 473Q195 442 189 415T171 358Q173 330 172 303T167 249L133 0H45L142 690H230ZM290 395L280 324H148L157
395H290Z" />
<glyph unicode="L" horiz-adv-x="509" d="M228 690L151 139Q147 109 159 92T206 74H456L454 5Q389 1 321 0T187 -1Q145 -1 115 15T71 63T64 142L139 690H228Z" />
<glyph unicode="M" horiz-adv-x="876" d="M791 690Q809 690 818 680T825 651L762 0H674L738 617H718L493 107Q487 92 478 85T452 78H373Q357 78 348 86T336 110L249 617H229L119 0H32L151 655Q154 672 163 681T190 690H287Q301 690 309 682T320 658L394 238Q399
214 401 191T407 144H426Q436 169 445 192T465 237L652 661Q659 676 668 682T693 689L791 690Z" />
<glyph unicode="N" horiz-adv-x="703" d="M673 690L580 33Q578 16 570 8T545 0H465Q450 0 442 8T429 30L256 519Q249 538 242 562T229 608H212Q211 586 209 563T204 517L133 0H45L137 657Q140 674 149 682T174 690H252Q267 690 275 682T288 660L456 184Q464 162
472 136T488 84H507Q509 110 511 135T517 185L586 690H673Z" />
<glyph unicode="O" horiz-adv-x="666" d="M387 703Q482 703 538 668T613 554T612 342Q599 242 575 174T515 64T425 5T297 -13Q202 -13 145 21T69 134T68 348Q82 446 105 513T165 623T256 684T387 703ZM382 624Q312 624 269 599T200 512T160 342Q146 237 153 177T196
92T299 66Q368 66 411 92T480 179T521 348Q537 456 529 516T486 600T382 624Z" />
<glyph unicode="P" horiz-adv-x="588" d="M376 699Q456 699 503 678T566 609T571 480Q559 392 532 346T455 284T327 267Q289 267 252 269T184 275T130 283T98 290L104 343Q157 343 213 343T324 343Q379 343 410 355T459 399T484 487Q492 542 484 571T448 612T373
623Q290 623 230 622T149 619L142 690Q180 694 213 696T284 698T376 699ZM230 690L133 0H45L142 690H230Z" />
<glyph unicode="Q" horiz-adv-x="666" d="M387 703Q482 703 538 668T613 554T612 342Q599 242 575 174T515 64T425 5T297 -13Q202 -13 145 21T69 134T68 348Q82 446 105 513T165 623T256 684T387 703ZM242 -44Q298 -72 362 -91T499 -121L464 -209Q386 -191 323
-162T208 -96L242 -44ZM382 624Q312 624 269 599T200 512T160 342Q146 237 153 177T196 92T299 66Q368 66 411 92T480 179T521 348Q537 456 529 516T486 600T382 624Z" />
<glyph unicode="R" horiz-adv-x="618" d="M376 699Q448 699 496 681T565 619T576 496Q569 444 551 407T502 349T422 322L421 317Q440 312 454 299T479 266T494 216L538 0H448L407 218Q400 257 381 272T329 288Q266 289 222 289T148 290T98 291L109 364H330Q381
365 412 377T462 418T487 499Q494 547 486 574T451 612T374 623Q289 623 230 622T149 621L142 690Q180 694 214 696T287 698T376 699ZM228 690L131 0H45L142 690H228Z" />
<glyph unicode="S" horiz-adv-x="560" d="M331 702Q381 701 433 697T535 682L526 618Q492 620 460 621T395 622T329 623Q295 623 269 622T223 611T192 581T175 520Q171 486 175 466T196 435T244 411L379 361Q431 342 458 317T492 255T493 167Q483 92 454 54T371
2T236 -12Q205 -12 150 -9T26 7L37 72Q96 70 132 69T192 67T237 67Q294 67 328 74T381 105T405 176Q410 212 405 231T384 263T336 286L199 337Q151 355 124 381T89 444T87 529Q95 587 114 621T165 673T237 696T331 702Z" />
<glyph unicode="T" horiz-adv-x="573" d="M386 690L289 0H201L298 690H386ZM608 690L598 612H65L76 690H608Z" />
<glyph unicode="U" horiz-adv-x="664" d="M639 690L579 263Q565 163 532 102T442 14T298 -13Q210 -13 156 15T83 104T78 267L136 690H225L165 263Q155 189 163 146T204 84T296 66Q357 66 396 85T458 148T492 267L550 690H639Z" />
<glyph unicode="V" horiz-adv-x="605" d="M645 690L340 23Q331 0 306 0H218Q206 0 198 8T188 27L69 690H158L245 142Q248 123 251 104T255 66H281Q288 85 296 105T312 145L552 690H645Z" />
<glyph unicode="W" horiz-adv-x="943" d="M969 690L734 24Q730 12 721 6T698 0H600Q587 0 578 8T568 29L532 548Q531 568 529 586T526 624H505Q498 605 492 584T478 544L299 25Q295 13 286 7T263 0H166Q153 0 144 8T133 28L83 690H173L205 151Q207 131 207 110T208
65H232Q240 88 247 110T261 154L438 662Q446 690 474 690H569Q582 690 590 681T599 659L640 150Q642 129 643 108T644 65H669Q675 86 682 108T696 152L877 690H969Z" />
<glyph unicode="X" horiz-adv-x="609" d="M184 690L317 349L84 0H-18L228 357L94 690H184ZM372 392L362 324H256L266 392H372ZM630 690L400 357L545 0H455L311 367L533 690H630Z" />
<glyph unicode="Y" horiz-adv-x="565" d="M609 690L312 234H233L64 690H154L258 397Q264 379 269 359T278 319H286Q293 338 304 360T327 400L513 690H609ZM324 296L283 0H194L237 296H324Z" />
<glyph unicode="Z" horiz-adv-x="562" d="M459 616L556 615L112 74L16 75L459 616ZM487 75L476 0H6L16 75H487ZM567 690L556 615H97L108 690H567Z" />
<glyph unicode="[" horiz-adv-x="325" d="M352 768L344 712H246Q239 712 233 707T226 694L115 -95Q113 -109 125 -109H229L221 -165H81Q58 -165 44 -152T33 -110L149 716Q152 740 168 754T208 768H352Z" />
<glyph unicode="\" horiz-adv-x="508" d="M146 690L435 -66H368L79 690H146Z" />
<glyph unicode="]" horiz-adv-x="325" d="M245 768Q269 768 283 752T294 713L178 -113Q175 -136 159 -150T119 -165H-25L-18 -109H80Q87 -109 93 -104T101 -91L212 698Q214 712 201 712H98L106 768H245Z" />
<glyph unicode="^" horiz-adv-x="426" d="M294 601L417 389L380 368L263 542H255L84 368L50 390L232 601H294Z" />
<glyph unicode="_" horiz-adv-x="438" d="M404 0L394 -65H-44L-34 0H404Z" />
<glyph unicode="`" horiz-adv-x="314" d="M125 723L295 576L264 538L79 663L125 723Z" />
<glyph unicode="a" horiz-adv-x="573" d="M294 499Q320 499 349 498T409 493T468 485T523 476L485 423Q430 425 387 426T320 428Q270 428 238 422T187 396T157 340T136 242Q126 169 127 130T145 77T195 62Q231 62 266 77T340 123T419 197L436 156Q411 111 372
73T283 12T178 -12Q120 -12 88 12T46 94T51 249Q63 331 83 381T132 456T202 490T294 499ZM437 476H523L456 0H389L396 115L387 123L437 476Z" />
<glyph unicode="b" horiz-adv-x="573" d="M380 499Q436 499 469 477T512 398T508 238Q496 155 476 105T428 30T361 -4T275 -13Q247 -13 216 -11T154 -3T93 8T37 23L77 67Q113 64 145 62T203 59T244 58Q293 58 324 64T373 90T402 147T421 244Q432 319 430 358T411
411T360 425Q322 425 265 392T140 295L123 333Q143 360 173 389T238 443T309 483T380 499ZM216 700L189 498Q184 464 178 436T162 377L169 365L121 19L37 23L132 700H216Z" />
<glyph unicode="c" horiz-adv-x="484" d="M308 499Q343 499 386 494T464 475L450 422Q418 425 382 426T322 427Q263 427 225 412T166 357T135 240Q125 165 134 127T174 74T261 60Q277 60 301 61T354 64T407 70L413 12Q375 0 331 -6T246 -12Q161 -12 113 14T49
97T46 247Q60 340 89 395T172 475T308 499Z" />
<glyph unicode="d" horiz-adv-x="572" d="M285 499Q338 499 399 493T508 476L485 425Q430 427 387 428T317 429Q268 429 237 423T186 397T156 341T136 242Q126 172 127 133T144 78T192 62Q245 62 297 95T418 197L435 156Q417 130 390 101T329 46T254 4T168 -12Q119
-12 88 12T47 94T50 249Q62 331 82 380T131 455T198 490T285 499ZM553 700L455 0H388L395 110L387 117L434 462L443 478Q443 504 445 528T451 580L468 700H553Z" />
<glyph unicode="e" horiz-adv-x="537" d="M314 499Q391 499 433 482T489 429T495 343Q487 296 466 268T406 226T310 207L73 185L82 249L309 271Q342 274 362 281T394 305T411 350Q417 387 406 403T369 424T303 428Q263 428 235 421T188 396T157 343T136 254Q124
173 135 131T177 75T260 60Q287 60 318 61T381 66T439 72L445 15Q420 5 384 -1T312 -9T246 -12Q162 -12 115 16T52 104T48 255Q58 327 77 374T127 449T204 487T314 499Z" />
<glyph unicode="f" horiz-adv-x="377" d="M312 717Q329 717 354 717T405 715T450 710L437 647H339Q291 647 269 630T238 563L150 -60Q141 -127 104 -164T-4 -201Q-26 -201 -55 -200T-120 -194L-107 -130H-31Q16 -130 38 -114T67 -47L154 576Q164 644 202 680T312
717ZM383 487L373 420H45L53 482L146 487H383Z" />
<glyph unicode="g" horiz-adv-x="575" d="M440 476H526L458 9Q452 -40 433 -80T381 -149T298 -193T181 -211Q168 -211 139 -211T76 -206T15 -195L24 -138Q45 -139 67 -139T117 -140T182 -139Q253 -137 306 -108T372 -8Q380 27 387 59T412 118L389 128L440 476ZM286
499Q324 499 366 496T449 488T524 476L486 423Q431 425 388 426T318 428Q269 428 238 422T188 396T158 340T138 242Q127 170 128 131T146 77T196 62Q232 62 267 77T340 123T420 197L438 158Q413 113 373 75T283 12T176 -12Q124 -12 91 11T48 92T52 249Q64 332 84
381T133 456T200 490T286 499Z" />
<glyph unicode="h" horiz-adv-x="578" d="M400 499Q461 499 492 465T515 364L463 0H378L427 343Q433 391 421 409T374 427Q326 427 276 397T157 311L158 374Q227 436 285 467T400 499ZM219 700L192 504Q187 464 179 424T162 360L168 346L120 0H35L134 700H219Z" />
<glyph unicode="i" horiz-adv-x="246" d="M192 487L124 0H40L108 487H192ZM197 694Q211 694 217 686T221 666L214 609Q210 585 186 585H147Q119 585 122 613L130 669Q133 694 157 694H197Z" />
<glyph unicode="j" horiz-adv-x="246" d="M192 487L122 -14Q117 -53 101 -88T61 -153T5 -204L-41 -165Q-7 -130 12 -94T38 -10L108 487H192ZM197 694Q211 694 217 686T221 666L214 609Q210 585 186 585H147Q119 585 122 613L130 669Q133 694 157 694H197Z" />
<glyph unicode="k" horiz-adv-x="521" d="M219 700L174 362Q170 328 162 299T140 236Q142 226 145 217T150 199L120 0H36L134 700H219ZM497 487Q473 414 432 363T340 275T233 214T128 166L122 237Q187 264 246 301T349 385T410 487H497ZM322 284Q333 268 343 250T361
214L457 0H366L255 258L322 284Z" />
<glyph unicode="l" horiz-adv-x="293" d="M220 700L140 132Q135 98 148 84T195 69H244L247 3Q238 -1 221 -3T187 -7T159 -9Q103 -9 74 24T53 117L135 700H220Z" />
<glyph unicode="m" horiz-adv-x="872" d="M169 487L162 361L168 346L120 0H35L104 487H169ZM376 499Q440 499 469 463T489 364L438 0H356L404 343Q410 387 398 407T345 427Q319 427 293 416T235 379T157 312L156 374Q218 438 271 468T376 499ZM695 499Q760 499
789 463T809 364L758 0H674L722 343Q728 391 713 409T663 427Q638 427 613 416T557 381T479 313L478 374Q540 439 591 469T695 499Z" />
<glyph unicode="n" horiz-adv-x="578" d="M400 499Q441 499 468 484T508 439T515 364L463 0H378L427 343Q433 391 421 409T374 427Q326 427 276 397T157 312L158 374Q227 436 285 467T400 499ZM172 487L164 361L168 346L120 0H35L104 487H172Z" />
<glyph unicode="o" horiz-adv-x="564" d="M307 499Q389 499 437 474T501 391T504 239Q491 147 462 92T380 12T245 -13Q164 -13 116 12T50 95T46 246Q59 338 88 393T171 474T307 499ZM307 427Q253 427 219 411T166 355T135 239Q125 170 131 131T165 75T245 59Q300
59 334 76T387 134T417 246Q427 317 421 356T387 411T307 427Z" />
<glyph unicode="p" horiz-adv-x="575" d="M384 499Q441 499 473 476T514 396T509 238Q497 156 478 106T429 31T361 -4T271 -13Q247 -13 219 -11T161 -6T104 1T52 11L75 62Q131 60 174 59T240 57Q290 57 322 63T373 89T403 146T423 244Q434 318 432 357T414 410T365
425Q340 425 304 409T225 363T141 290L125 330Q144 359 174 388T240 443T313 483T384 499ZM172 487L165 377L173 369L126 25L117 8Q116 -18 115 -41T109 -93L92 -203H6L105 487H172Z" />
<glyph unicode="q" horiz-adv-x="570" d="M278 499Q308 499 340 497T403 490T464 479T520 465L481 420Q445 424 413 425T355 428T311 429Q264 429 234 423T185 397T155 340T136 242Q126 171 128 132T146 77T196 62Q233 62 265 76T333 120T419 196L435 156Q409
119 370 81T282 15T172 -12Q123 -12 91 11T48 91T50 249Q62 331 81 381T129 456T195 490T278 499ZM435 468L520 465L425 -203H340L368 -12Q373 24 380 53T399 113L387 121L435 468Z" />
<glyph unicode="r" horiz-adv-x="398" d="M169 487L161 353L167 338L120 0H35L104 487H169ZM411 499L390 419H365Q321 419 274 391T157 310L153 365Q216 429 275 464T386 499H411Z" />
<glyph unicode="s" horiz-adv-x="506" d="M264 499Q298 499 335 497T406 491T469 484L458 423Q412 425 366 426T266 428Q224 428 198 426T159 413T143 378Q139 348 155 335T202 307L338 247Q376 231 399 214T431 172T435 109Q428 55 400 30T323 -3T207 -11Q160
-11 133 -9T81 -4T21 3L31 65Q55 63 82 62T136 61T187 60Q249 61 283 65T332 82T352 117Q355 138 348 149T326 167T289 185L153 245Q119 261 97 279T65 322T60 384Q66 432 90 457T158 491T264 499Z" />
<glyph unicode="t" horiz-adv-x="377" d="M245 631L175 132Q170 97 182 83T229 69H305L308 4Q292 0 271 -3T230 -7T199 -9Q136 -9 108 26T89 124L161 631H245ZM380 487L370 420H42L50 482L146 487H380Z" />
<glyph unicode="u" horiz-adv-x="567" d="M186 487L137 144Q130 99 144 80T195 61Q242 61 286 90T396 179L404 118Q339 53 282 20T166 -13Q99 -13 70 23T50 123L101 487H186ZM518 487L450 0H384L393 134L387 148L433 487H518Z" />
<glyph unicode="v" horiz-adv-x="531" d="M517 487Q507 436 492 385T459 288T424 204Q402 155 379 115T339 51Q327 34 314 23T285 6T243 0H168Q158 0 150 6T140 23L45 487H134L208 67H224Q242 67 254 72T279 96Q292 113 312 149T354 239Q383 304 399 360T429 487H517Z" />
<glyph unicode="w" horiz-adv-x="850" d="M133 487L202 67H215Q228 67 239 74T262 102Q275 125 289 160T317 239Q328 272 336 303T352 373T369 466Q371 476 377 481T393 487H486Q495 487 501 481T508 467L557 67H569Q582 67 592 76T610 98Q630 129 646 158T681
239Q704 298 719 359T746 487H835Q824 439 811 390T781 295T746 204Q724 155 701 113T660 48Q648 32 636 22T609 6T574 0H518Q507 0 500 6T491 23L445 431H432Q429 403 423 367T407 292T386 218Q377 189 366 160T343 106T319 63Q305 39 288 25T252 6T212 0H162Q152
0 145 6T135 23L45 487H133Z" />
<glyph unicode="x" horiz-adv-x="526" d="M148 487L265 244L76 0H-19L180 252L63 487H148ZM315 286L305 220H201L211 286H315ZM520 487L336 251L463 0H377L250 258L428 487H520Z" />
<glyph unicode="y" horiz-adv-x="539" d="M523 487Q513 444 503 403T479 322T451 241T417 162T375 81Q322 -18 272 -76T169 -164T51 -206L35 -145Q73 -136 107 -120T173 -75T237 -3T301 106Q332 167 356 225T400 346T435 487H523ZM133 487L210 86Q215 67 233 67H290L251
0H195Q173 0 158 12T138 45L44 487H133Z" />
<glyph unicode="z" horiz-adv-x="504" d="M374 418L472 417L113 68L15 69L374 418ZM426 69L416 0H6L16 69H426ZM481 487L471 417H69L78 487H481Z" />
<glyph unicode="{" horiz-adv-x="318" d="M340 768L337 714Q285 714 262 694T232 627L207 448Q202 407 192 383T161 347T102 327Q136 316 154 302T177 266T177 208L144 -28Q137 -74 152 -92T220 -111L217 -165Q158 -169 122 -155T71 -109T63 -31L99 225Q103 251
98 263T80 283T45 298L53 360Q78 368 92 374T113 394T125 439L153 637Q159 684 179 715T238 759T340 768Z" />
<glyph unicode="|" horiz-adv-x="245" d="M222 781L89 -169H26L159 781H222Z" />
<glyph unicode="}" horiz-adv-x="319" d="M107 768Q169 773 205 758T254 710T261 634L233 435Q229 404 231 390T246 371T283 358L275 296Q251 288 236 281T212 261T199 221L164 -34Q158 -81 138 -111T79 -155T-24 -165L-21 -111Q32 -111 54 -91T83 -25L117 212Q123
247 133 268T165 303T226 329Q193 336 176 348T153 386T154 452L180 631Q186 676 171 695T103 714L107 768Z" />
<glyph unicode="~" horiz-adv-x="522" d="M155 348Q182 347 208 339T259 320T307 300T353 289Q381 286 393 299T411 344L454 341Q453 281 428 252T366 225Q335 227 308 235T257 253T210 273T167 284Q139 287 127 273T110 226L66 230Q67 272 79 298T112 336T155 348Z" />
<glyph unicode="&#xa0;" horiz-adv-x="223" />
<glyph unicode="&#xa1;" horiz-adv-x="255" d="M160 282L143 104L101 -196H17L59 104L93 282H160ZM166 493Q183 493 190 485T194 460L187 405Q185 390 177 383T153 375H131Q96 375 102 408L109 463Q113 493 143 493H166Z" />
<glyph unicode="&#xa2;" horiz-adv-x="505" d="M323 603Q357 603 401 598T478 579L465 526Q433 529 397 530T336 532Q277 532 240 517T181 462T150 345Q141 270 149 231T188 178T275 164Q291 164 316 165T369 168T422 175L428 116Q390 104 346 98T260 92Q175 92
127 118T63 201T61 351Q75 444 104 499T187 579T323 603ZM268 133L237 0H195L226 133H268ZM364 557L269 131H227L321 557H364ZM396 690L364 555H322L354 690H396Z" />
<glyph unicode="&#xa3;" horiz-adv-x="568" d="M369 702Q401 702 449 700T549 692L539 622Q520 623 503 623T468 624T425 625T366 626Q305 626 277 603T243 518L223 262Q219 216 208 182T177 121T124 71Q140 74 156 74T189 75H488L478 0H19L29 76Q85 102 108 152T137
264L158 523Q164 582 180 617T223 671T286 695T369 702ZM446 390L436 338H64L71 390H446Z" />
<glyph unicode="&#xa4;" horiz-adv-x="596" d="M326 549Q387 549 429 523T490 452T502 349Q495 291 466 248T391 180T285 156Q227 156 185 181T123 251T110 355Q118 414 146 457T220 525T326 549ZM151 255L186 214L88 126L52 167L151 255ZM442 236L519 150L480
114L404 200L442 236ZM324 500Q256 500 213 459T161 349Q154 284 187 245T284 205Q330 205 365 223T423 275T450 356Q455 399 441 431T398 482T324 500ZM135 594L208 509L168 473L95 557L135 594ZM523 581L558 539L466 459L430 498L523 581Z" />
<glyph unicode="&#xa5;" horiz-adv-x="615" d="M634 690L338 242H259L89 690H178L283 405Q289 387 294 367T303 327H312Q319 346 331 368T354 408L538 690H634ZM350 304L307 0H219L262 304H350ZM515 210L507 159H68L74 210H515ZM530 323L523 271H84L90 323H530Z" />
<glyph unicode="&#xa6;" horiz-adv-x="245" d="M222 781L166 381H103L160 781H222ZM145 231L89 -169H26L82 231H145Z" />
<glyph unicode="&#xa7;" horiz-adv-x="544" d="M91 386H153Q144 343 143 313T154 262T196 221L356 122Q377 109 394 95T422 62T437 21T437 -35Q429 -92 401 -119T329 -154T226 -162Q196 -161 160 -160T85 -157T8 -150L19 -83Q69 -86 111 -87T206 -90Q245 -90 275
-87T324 -70T347 -26Q352 9 338 29T298 64L148 155Q103 182 84 214T68 289T91 386ZM311 703Q340 703 379 702T458 698T531 691L520 625Q491 627 466 628T411 629T334 630Q290 631 260 628T213 611T191 569Q186 535 200 515T241 479L393 386Q438 359 455 326T470
250T448 152H386Q395 195 395 226T384 281T342 323L183 422Q154 440 134 460T105 509T102 578Q109 631 135 658T205 694T311 703Z" />
<glyph unicode="&#xa8;" horiz-adv-x="411" d="M198 694Q213 694 217 688T220 670L212 615Q211 603 205 597T185 591H157Q133 591 136 614L144 670Q146 682 152 688T172 694H198ZM367 694Q382 694 386 688T389 670L381 615Q380 603 374 597T354 591H326Q302 591
305 614L313 670Q315 682 321 688T341 694H367Z" />
<glyph unicode="&#xa9;" horiz-adv-x="834" d="M464 703Q569 703 646 658T760 531T783 342Q770 240 717 160T579 34T383 -13Q302 -13 239 14T133 90T74 204T66 348Q79 449 131 529T268 656T464 703ZM465 568Q503 568 532 565T591 554L581 506Q550 508 524 509T471
510Q415 510 381 498T329 450T301 344Q293 283 299 249T330 200T401 185Q433 185 457 185T502 187T544 191L548 142Q516 135 483 131T411 127Q333 127 291 148T237 218T235 351Q247 434 272 481T344 548T465 568ZM467 659Q371 659 295 618T172 506T112 342Q101
248 132 178T229 70T382 31Q478 31 554 72T678 184T737 348Q749 439 719 509T624 619T467 659Z" />
<glyph unicode="&#xaa;" horiz-adv-x="446" d="M247 607Q284 607 330 603T412 590L384 551Q346 553 314 553T269 553Q226 553 202 546T165 514T145 435Q138 386 140 362T155 330T189 322Q221 322 257 343T335 402L349 373Q335 347 310 322T251 280T176 264Q138
264 113 279T79 333T79 439Q87 496 102 530T138 580T187 602T247 607ZM348 590H412L368 271H315L317 340L314 346L348 590Z" />
<glyph unicode="&#xab;" horiz-adv-x="477" d="M406 459L441 427L288 250L397 68L354 39L218 246L219 265L406 459ZM225 459L260 427L107 250L216 68L173 39L37 246L38 265L225 459Z" />
<glyph unicode="&#xac;" horiz-adv-x="587" d="M515 330L505 265H68L77 330H515ZM515 330L487 133H422L449 322L515 330Z" />
<glyph unicode="&#xad;" horiz-adv-x="447" d="M629 285L621 220H316L325 285H629Z" />
<glyph unicode="&#xae;" horiz-adv-x="554" d="M323 702Q386 702 434 676T507 600T525 476Q518 409 486 360T403 284T286 257Q217 257 169 286T97 366T81 485Q89 552 121 600T205 675T323 702ZM260 610L224 352H184L221 610H260ZM322 674Q228 674 174 620T111
481Q105 418 125 374T187 307T286 284Q346 284 391 309T463 379T495 483Q501 545 481 587T420 652T322 674ZM328 613Q357 613 380 608T415 587T422 535Q419 507 406 493T361 471V469Q371 465 376 457T386 431L407 352H365L346 432Q342 449 334 453T311 458Q276
458 256 458T226 459T207 460L210 488H309Q344 489 361 497T382 538Q386 567 373 574T327 582Q304 582 283 582T248 582T227 581L221 610Q248 612 271 612T328 613Z" />
<glyph unicode="&#xaf;" horiz-adv-x="400" d="M399 672L391 609H112L120 672H399Z" />
<glyph unicode="&#xb0;" horiz-adv-x="363" d="M230 703Q270 703 298 686T340 639T350 572Q345 516 306 482T211 448Q170 448 142 466T102 515T92 580Q97 635 135 669T230 703ZM227 652Q194 652 172 632T145 577Q142 542 161 521T214 499Q248 499 270 520T296
575Q299 608 281 630T227 652Z" />
<glyph unicode="&#xb1;" horiz-adv-x="585" d="M358 524L311 193H246L292 524H358ZM489 133L480 70H42L51 133H489ZM525 391L516 327H78L87 391H525Z" />
<glyph unicode="&#xb2;" horiz-adv-x="414" d="M275 773Q340 773 374 758T409 697Q409 666 395 638T357 584T306 535L170 416Q187 418 202 418T234 418L388 417L378 359H73L78 395Q80 403 83 410T93 423L236 547Q261 568 283 590T319 636T333 681Q333 704 315
710T264 716Q233 716 203 714T132 707L135 758Q182 768 216 770T275 773Z" />
<glyph unicode="&#xb3;" horiz-adv-x="407" d="M267 774Q337 774 368 758T400 702Q400 656 379 620T312 576V574Q350 568 365 549T381 499Q381 446 363 413T309 366T220 351Q180 351 143 354T73 363L85 413Q108 411 128 410T168 408T211 407Q262 407 287 427T313
497Q313 517 299 531T239 546H154L161 596L246 597Q290 597 310 617T331 678Q331 702 314 710T252 718Q220 718 189 717T134 712L136 761Q171 767 203 770T267 774Z" />
<glyph unicode="&#xb4;" horiz-adv-x="314" d="M293 724L334 658L127 538L101 577L293 724Z" />
<glyph unicode="&#xb5;" horiz-adv-x="582" d="M197 487L148 144Q143 104 158 86T212 68Q244 68 283 87T357 151T407 272L386 104Q366 71 336 45T269 3T192 -13Q146 -13 116 9T72 65T63 138L112 487H197ZM522 487L469 108Q465 83 468 69T491 55H532L531 4Q511
-2 490 -6T450 -10Q412 -10 394 10T382 77L386 104L385 118L437 487H522ZM138 76L117 -76L88 -197H16L69 181L138 76Z" />
<glyph unicode="&#xb6;" horiz-adv-x="590" d="M393 702Q427 702 471 698T550 685L539 635Q516 640 485 642T425 645T374 646L266 200Q182 207 133 236T66 321T60 458Q73 551 110 604T217 679T393 702ZM387 685L261 -210H196L322 685H387ZM550 685L454 0H388L485
685H550Z" />
<glyph unicode="&#xb7;" horiz-adv-x="233" d="M132 317Q150 317 156 309T161 284L154 229Q152 214 144 207T120 199H92Q58 199 62 232L70 288Q74 317 104 317H132Z" />
<glyph unicode="&#xb8;" horiz-adv-x="234" d="M47 -43Q86 -39 111 -43T146 -64T151 -112Q145 -153 120 -181T55 -222T-31 -229L-15 -184Q26 -185 55 -164T90 -111Q93 -94 83 -89T37 -83L47 -43Z" />
<glyph unicode="&#xb9;" horiz-adv-x="295" d="M284 767L226 359H160L204 669Q206 678 207 687T212 707L100 678L98 725L217 767H284Z" />
<glyph unicode="&#xba;" horiz-adv-x="441" d="M258 607Q349 607 382 568T401 432Q393 370 372 333T315 280T220 264Q132 264 98 304T77 439Q90 532 130 569T258 607ZM258 554Q219 554 197 543T162 506T143 432Q134 365 150 342T221 318Q276 318 300 343T335 439Q345
507 329 530T258 554Z" />
<glyph unicode="&#xbb;" horiz-adv-x="478" d="M59 37L24 69L177 246L68 428L111 457L247 250L246 231L59 37ZM240 37L205 69L358 246L249 428L292 457L428 250L427 231L240 37Z" />
<glyph unicode="&#xbc;" horiz-adv-x="858" d="M698 690L154 0H91L636 690H698ZM274 690L216 276H149L193 593Q195 603 196 612T201 632L86 601L85 647L207 690H274ZM681 414L525 170Q520 162 522 156T536 150H801L794 103L732 97H486Q470 97 458 105T443 129T453
164L615 414H681ZM775 335L728 0H666L702 267L723 335H775Z" />
<glyph unicode="&#xbd;" horiz-adv-x="878" d="M691 690L147 0H85L629 690H691ZM273 690L215 276H148L193 593Q195 603 196 612T201 632L86 601L85 647L207 690H273ZM679 421Q730 421 763 414T811 385T820 323Q816 290 792 256T720 181L571 58Q590 60 606 60T641
60L801 59L792 0H480L486 39Q487 48 489 55T498 68L644 192Q691 232 717 264T748 324Q753 352 733 358T677 364Q655 364 635 364T593 362T541 356L539 406Q589 417 622 419T679 421Z" />
<glyph unicode="&#xbe;" horiz-adv-x="952" d="M801 690L257 0H194L739 690H801ZM246 695Q331 695 361 674T384 596Q381 570 372 549T346 514T298 495L292 492Q340 485 355 458T366 385Q361 344 344 318T293 279T204 266Q165 266 128 269T55 277L60 327Q84 325
104 324T145 323T186 322Q242 322 268 340T300 401Q303 419 299 433T278 456T224 465H137L143 515H227Q263 516 282 527T308 554T318 587Q323 619 307 629T239 640Q205 640 173 639T117 636L115 685Q150 690 182 692T246 695ZM774 414L618 170Q613 162 615 156T629
150H894L887 103L825 97H579Q563 97 551 105T536 129T546 164L708 414H774ZM866 335L819 0H756L793 267L814 335H866Z" />
<glyph unicode="&#xbf;" horiz-adv-x="494" d="M292 287Q285 232 264 192T213 122T156 67T107 14T80 -47Q72 -95 98 -117T192 -140Q243 -140 276 -139T336 -136T393 -131L394 -192Q368 -196 346 -200T301 -207T248 -211T174 -213Q71 -213 26 -169T-11 -54Q-5 -10
17 22T70 82T132 138T188 202T221 287H292ZM295 499Q312 499 319 491T325 466L317 411Q315 395 307 388T283 381H262Q228 381 232 414L240 470Q243 499 273 499H295Z" />
<glyph unicode="&#xc0;" horiz-adv-x="619" d="M412 690Q424 690 432 683T442 664L571 0H483L384 564Q382 579 380 594T376 623H346Q340 610 333 594T320 564L63 0H-30L286 667Q290 679 299 684T320 690H412ZM486 292L476 215H126L136 292H486ZM257 913L427 766L396
728L211 853L257 913Z" />
<glyph unicode="&#xc1;" horiz-adv-x="619" d="M412 690Q424 690 432 683T442 664L571 0H483L384 564Q382 579 380 594T376 623H346Q340 610 333 594T320 564L63 0H-30L286 667Q290 679 299 684T320 690H412ZM486 292L476 215H126L136 292H486ZM504 914L545 848L338
728L312 767L504 914Z" />
<glyph unicode="&#xc2;" horiz-adv-x="619" d="M412 690Q424 690 432 683T442 664L571 0H483L384 564Q382 579 380 594T376 623H346Q340 610 333 594T320 564L63 0H-30L286 667Q290 679 299 684T320 690H412ZM486 292L476 215H126L136 292H486ZM424 896L548 763L516
730L397 831H389L240 731L215 769L364 896H424Z" />
<glyph unicode="&#xc3;" horiz-adv-x="619" d="M412 690Q424 690 432 683T442 664L571 0H483L384 564Q382 579 380 594T376 623H346Q340 610 333 594T320 564L63 0H-30L286 667Q290 679 299 684T320 690H412ZM486 292L476 215H126L136 292H486ZM310 879Q334 877
351 870T384 852T414 834T450 824Q480 820 493 834T511 876L551 873Q550 816 525 788T462 762Q436 764 417 772T382 790T352 808T320 819Q291 822 278 808T260 763L220 767Q222 827 248 854T310 879Z" />
<glyph unicode="&#xc4;" horiz-adv-x="619" d="M412 690Q424 690 432 683T442 664L571 0H483L384 564Q382 579 380 594T376 623H346Q340 610 333 594T320 564L63 0H-30L286 667Q290 679 299 684T320 690H412ZM486 292L476 215H126L136 292H486ZM321 870Q336 870
340 864T343 846L335 791Q334 779 328 773T308 767H280Q256 767 259 790L267 846Q269 858 275 864T295 870H321ZM490 870Q505 870 509 864T512 846L504 791Q503 779 497 773T477 767H449Q425 767 428 790L436 846Q438 858 444 864T464 870H490Z" />
<glyph unicode="&#xc5;" horiz-adv-x="619" d="M412 690Q424 690 432 683T442 664L571 0H483L384 564Q382 579 380 594T376 623H346Q340 610 333 594T320 564L63 0H-30L286 667Q290 679 299 684T320 690H412ZM486 292L476 215H126L136 292H486ZM393 925Q438 925
466 899T494 829Q494 780 462 748T380 715Q335 715 307 741T279 811Q279 860 311 892T393 925ZM392 881Q361 881 344 862T327 815Q327 791 341 775T382 759Q411 759 428 778T446 826Q446 850 432 865T392 881Z" />
<glyph unicode="&#xc6;" horiz-adv-x="912" d="M619 691Q714 691 782 690T916 685L904 616H649Q618 616 598 600T572 547L516 139Q512 105 524 90T571 74H829L825 5Q758 1 691 0T555 -1Q491 -1 457 35T433 137L492 560Q494 581 505 601T532 630H527Q513 623 496
607T460 565L52 0H-42L382 583Q405 616 428 637T479 669T540 686T619 691ZM479 299L468 224H168L187 301L479 299ZM483 399L835 398L826 329H472L483 399Z" />
<glyph unicode="&#xc7;" horiz-adv-x="566" d="M383 702Q428 702 460 700T518 694T571 681L557 615Q528 618 503 620T449 623T382 624Q331 624 295 611T232 567T189 481T160 342Q145 237 152 177T194 92T294 66Q360 66 404 69T491 77L496 10Q451 -2 405 -7T293
-12Q194 -12 139 25T67 142T68 348Q82 446 105 514T165 623T255 683T383 702ZM228 -55Q267 -51 292 -55T327 -76T332 -124Q326 -165 301 -193T236 -234T150 -241L166 -196Q207 -197 236 -176T271 -123Q274 -106 264 -101T218 -95L228 -55Z" />
<glyph unicode="&#xc8;" horiz-adv-x="558" d="M264 691Q315 691 366 691T466 690T562 685L550 616H275Q241 616 225 600T204 548L148 139Q143 105 156 90T203 74H473L471 5Q427 2 380 1T286 0T192 -1Q116 -1 83 36T58 137L119 573Q127 629 163 660T264 691ZM113
398H480L471 330H103L113 398ZM255 934L425 787L394 749L209 874L255 934Z" />
<glyph unicode="&#xc9;" horiz-adv-x="558" d="M264 691Q315 691 366 691T466 690T562 685L550 616H275Q241 616 225 600T204 548L148 139Q143 105 156 90T203 74H473L471 5Q427 2 380 1T286 0T192 -1Q116 -1 83 36T58 137L119 573Q127 629 163 660T264 691ZM113
398H480L471 330H103L113 398ZM502 935L543 869L336 749L310 788L502 935Z" />
<glyph unicode="&#xca;" horiz-adv-x="558" d="M264 691Q315 691 366 691T466 690T562 685L550 616H275Q241 616 225 600T204 548L148 139Q143 105 156 90T203 74H473L471 5Q427 2 380 1T286 0T192 -1Q116 -1 83 36T58 137L119 573Q127 629 163 660T264 691ZM113
398H480L471 330H103L113 398ZM422 917L546 784L514 751L395 852H387L238 752L213 790L362 917H422Z" />
<glyph unicode="&#xcb;" horiz-adv-x="558" d="M264 691Q315 691 366 691T466 690T562 685L550 616H275Q241 616 225 600T204 548L148 139Q143 105 156 90T203 74H473L471 5Q427 2 380 1T286 0T192 -1Q116 -1 83 36T58 137L119 573Q127 629 163 660T264 691ZM113
398H480L471 330H103L113 398ZM319 890Q334 890 338 884T341 866L333 811Q332 799 326 793T306 787H278Q254 787 257 810L265 866Q267 878 273 884T293 890H319ZM488 890Q503 890 507 884T510 866L502 811Q501 799 495 793T475 787H447Q423 787 426 810L434 866Q436
878 442 884T462 890H488Z" />
<glyph unicode="&#xcc;" horiz-adv-x="261" d="M231 690L134 0H45L142 690H231ZM75 913L245 766L214 728L29 853L75 913Z" />
<glyph unicode="&#xcd;" horiz-adv-x="261" d="M231 690L134 0H45L142 690H231ZM323 914L364 848L157 728L131 767L323 914Z" />
<glyph unicode="&#xce;" horiz-adv-x="261" d="M231 690L134 0H45L142 690H231ZM243 896L367 763L335 730L216 831H208L59 731L34 769L183 896H243Z" />
<glyph unicode="&#xcf;" horiz-adv-x="261" d="M231 690L134 0H45L142 690H231ZM140 870Q155 870 159 864T162 846L154 791Q153 779 147 773T127 767H99Q75 767 78 790L86 846Q88 858 94 864T114 870H140ZM309 870Q324 870 328 864T331 846L323 791Q322 779 316
773T296 767H268Q244 767 247 790L255 846Q257 858 263 864T283 870H309Z" />
<glyph unicode="&#xd0;" horiz-adv-x="662" d="M342 391L336 342H27L34 391H342ZM368 699Q474 699 533 666T609 554T608 342Q592 230 567 161T503 55T408 5T274 -9Q222 -9 161 -7T45 0L91 72Q132 71 184 70T273 68Q332 68 373 79T441 120T486 205T517 348Q529
433 528 487T509 570T457 611T366 623Q342 623 307 623T236 622T174 620L142 690Q176 693 217 695T297 698T368 699ZM230 690L133 0H45L142 690H230Z" />
<glyph unicode="&#xd1;" horiz-adv-x="703" d="M673 690L580 33Q578 16 570 8T545 0H465Q450 0 442 8T429 30L256 519Q249 538 242 562T229 608H212Q211 586 209 563T204 517L133 0H45L137 657Q140 674 149 682T174 690H252Q267 690 275 682T288 660L456 184Q464
162 472 136T488 84H507Q509 110 511 135T517 185L586 690H673ZM357 879Q381 877 398 870T431 852T461 834T497 824Q527 820 540 834T558 876L598 873Q597 816 572 788T509 762Q483 764 464 772T429 790T399 808T367 819Q338 822 325 808T307 763L267 767Q269 827
295 854T357 879Z" />
<glyph unicode="&#xd2;" horiz-adv-x="666" d="M387 703Q482 703 538 668T613 554T612 342Q599 242 575 174T515 64T425 5T297 -13Q202 -13 145 21T69 134T68 348Q82 446 105 513T165 623T256 684T387 703ZM382 624Q312 624 269 599T200 512T160 342Q146 237 153
177T196 92T299 66Q368 66 411 92T480 179T521 348Q537 456 529 516T486 600T382 624ZM273 913L443 766L412 728L227 853L273 913Z" />
<glyph unicode="&#xd3;" horiz-adv-x="666" d="M387 703Q482 703 538 668T613 554T612 342Q599 242 575 174T515 64T425 5T297 -13Q202 -13 145 21T69 134T68 348Q82 446 105 513T165 623T256 684T387 703ZM382 624Q312 624 269 599T200 512T160 342Q146 237 153
177T196 92T299 66Q368 66 411 92T480 179T521 348Q537 456 529 516T486 600T382 624ZM521 914L562 848L355 728L329 767L521 914Z" />
<glyph unicode="&#xd4;" horiz-adv-x="666" d="M387 703Q482 703 538 668T613 554T612 342Q599 242 575 174T515 64T425 5T297 -13Q202 -13 145 21T69 134T68 348Q82 446 105 513T165 623T256 684T387 703ZM382 624Q312 624 269 599T200 512T160 342Q146 237 153
177T196 92T299 66Q368 66 411 92T480 179T521 348Q537 456 529 516T486 600T382 624ZM441 896L565 763L533 730L414 831H406L257 731L232 769L381 896H441Z" />
<glyph unicode="&#xd5;" horiz-adv-x="666" d="M387 703Q482 703 538 668T613 554T612 342Q599 242 575 174T515 64T425 5T297 -13Q202 -13 145 21T69 134T68 348Q82 446 105 513T165 623T256 684T387 703ZM382 624Q312 624 269 599T200 512T160 342Q146 237 153
177T196 92T299 66Q368 66 411 92T480 179T521 348Q537 456 529 516T486 600T382 624ZM327 879Q351 877 368 870T401 852T431 834T467 824Q497 820 510 834T528 876L568 873Q567 816 542 788T479 762Q453 764 434 772T399 790T369 808T337 819Q308 822 295 808T277
763L237 767Q239 827 265 854T327 879Z" />
<glyph unicode="&#xd6;" horiz-adv-x="666" d="M387 703Q482 703 538 668T613 554T612 342Q599 242 575 174T515 64T425 5T297 -13Q202 -13 145 21T69 134T68 348Q82 446 105 513T165 623T256 684T387 703ZM382 624Q312 624 269 599T200 512T160 342Q146 237 153
177T196 92T299 66Q368 66 411 92T480 179T521 348Q537 456 529 516T486 600T382 624ZM338 870Q353 870 357 864T360 846L352 791Q351 779 345 773T325 767H297Q273 767 276 790L284 846Q286 858 292 864T312 870H338ZM507 870Q522 870 526 864T529 846L521 791Q520
779 514 773T494 767H466Q442 767 445 790L453 846Q455 858 461 864T481 870H507Z" />
<glyph unicode="&#xd7;" horiz-adv-x="525" d="M445 477L484 422L81 102L42 157L445 477ZM130 471L438 151L392 104L83 424L130 471Z" />
<glyph unicode="&#xd8;" horiz-adv-x="666" d="M560 753L602 729L123 -60L82 -35L560 753ZM387 703Q482 703 538 668T613 554T612 342Q599 242 575 174T515 64T425 5T297 -13Q202 -13 145 21T69 134T68 348Q82 446 105 513T165 623T256 684T387 703ZM382 624Q312
624 269 599T200 512T160 342Q146 237 153 177T196 92T299 66Q368 66 411 92T480 179T521 348Q537 456 529 516T486 600T382 624Z" />
<glyph unicode="&#xd9;" horiz-adv-x="664" d="M639 690L579 263Q565 163 532 102T442 14T298 -13Q210 -13 156 15T83 104T78 267L136 690H225L165 263Q155 189 163 146T204 84T296 66Q357 66 396 85T458 148T492 267L550 690H639ZM273 913L443 766L412 728L227
853L273 913Z" />
<glyph unicode="&#xda;" horiz-adv-x="664" d="M639 690L579 263Q565 163 532 102T442 14T298 -13Q210 -13 156 15T83 104T78 267L136 690H225L165 263Q155 189 163 146T204 84T296 66Q357 66 396 85T458 148T492 267L550 690H639ZM521 914L562 848L355 728L329
767L521 914Z" />
<glyph unicode="&#xdb;" horiz-adv-x="664" d="M639 690L579 263Q565 163 532 102T442 14T298 -13Q210 -13 156 15T83 104T78 267L136 690H225L165 263Q155 189 163 146T204 84T296 66Q357 66 396 85T458 148T492 267L550 690H639ZM441 896L565 763L533 730L414
831H406L257 731L232 769L381 896H441Z" />
<glyph unicode="&#xdc;" horiz-adv-x="664" d="M639 690L579 263Q565 163 532 102T442 14T298 -13Q210 -13 156 15T83 104T78 267L136 690H225L165 263Q155 189 163 146T204 84T296 66Q357 66 396 85T458 148T492 267L550 690H639ZM338 870Q353 870 357 864T360
846L352 791Q351 779 345 773T325 767H297Q273 767 276 790L284 846Q286 858 292 864T312 870H338ZM507 870Q522 870 526 864T529 846L521 791Q520 779 514 773T494 767H466Q442 767 445 790L453 846Q455 858 461 864T481 870H507Z" />
<glyph unicode="&#xdd;" horiz-adv-x="565" d="M609 690L312 234H233L64 690H154L258 397Q264 379 269 359T278 319H286Q293 338 304 360T327 400L513 690H609ZM324 296L283 0H194L237 296H324ZM463 914L504 848L297 728L271 767L463 914Z" />
<glyph unicode="&#xde;" horiz-adv-x="589" d="M358 567Q434 567 481 548T547 480T552 346Q540 261 513 214T438 149T316 131Q259 131 210 135T126 144T79 153L85 207Q138 207 195 207T305 207Q357 208 389 220T439 263T465 353Q473 409 466 439T432 480T355 492Q272
492 213 491T131 488L124 559Q163 563 195 564T266 566T358 567ZM230 690L133 0H45L142 690H230Z" />
<glyph unicode="&#xdf;" horiz-adv-x="672" d="M394 721Q479 721 529 709T598 667T610 587Q607 561 597 539T564 497T506 456Q479 442 455 430T414 404T394 367Q390 345 404 332T445 302L543 243Q584 218 602 191T614 110Q607 59 583 33T518 -2T420 -11Q389 -11
349 -9T261 0L271 65Q309 63 344 62T405 61Q445 61 471 65T511 83T528 122Q531 142 525 154T508 176T479 196L378 257Q343 278 325 306T312 370Q316 402 334 423T382 461T447 498Q472 513 489 526T516 554T528 589Q530 608 522 622T487 643T401 651Q343 651 309
641T258 606T234 532L150 -60Q143 -108 124 -139T72 -185T-10 -201Q-24 -201 -55 -200T-120 -194L-107 -130H-31Q16 -130 38 -114T67 -47L150 544Q158 603 178 638T229 691T301 715T394 721ZM187 487L176 420H44L53 481L146 487H187Z" />
<glyph unicode="&#xe0;" horiz-adv-x="573" d="M294 499Q320 499 349 498T409 493T468 485T523 476L485 423Q430 425 387 426T320 428Q270 428 238 422T187 396T157 340T136 242Q126 169 127 130T145 77T195 62Q231 62 266 77T340 123T419 197L436 156Q411 111
372 73T283 12T178 -12Q120 -12 88 12T46 94T51 249Q63 331 83 381T132 456T202 490T294 499ZM437 476H523L456 0H389L396 115L387 123L437 476ZM206 734L376 587L345 549L160 674L206 734Z" />
<glyph unicode="&#xe1;" horiz-adv-x="573" d="M294 499Q320 499 349 498T409 493T468 485T523 476L485 423Q430 425 387 426T320 428Q270 428 238 422T187 396T157 340T136 242Q126 169 127 130T145 77T195 62Q231 62 266 77T340 123T419 197L436 156Q411 111
372 73T283 12T178 -12Q120 -12 88 12T46 94T51 249Q63 331 83 381T132 456T202 490T294 499ZM437 476H523L456 0H389L396 115L387 123L437 476ZM453 735L494 669L287 549L261 588L453 735Z" />
<glyph unicode="&#xe2;" horiz-adv-x="573" d="M294 499Q320 499 349 498T409 493T468 485T523 476L485 423Q430 425 387 426T320 428Q270 428 238 422T187 396T157 340T136 242Q126 169 127 130T145 77T195 62Q231 62 266 77T340 123T419 197L436 156Q411 111
372 73T283 12T178 -12Q120 -12 88 12T46 94T51 249Q63 331 83 381T132 456T202 490T294 499ZM437 476H523L456 0H389L396 115L387 123L437 476ZM374 716L498 583L466 550L347 651H339L190 551L165 589L314 716H374Z" />
<glyph unicode="&#xe3;" horiz-adv-x="573" d="M294 499Q320 499 349 498T409 493T468 485T523 476L485 423Q430 425 387 426T320 428Q270 428 238 422T187 396T157 340T136 242Q126 169 127 130T145 77T195 62Q231 62 266 77T340 123T419 197L436 156Q411 111
372 73T283 12T178 -12Q120 -12 88 12T46 94T51 249Q63 331 83 381T132 456T202 490T294 499ZM437 476H523L456 0H389L396 115L387 123L437 476ZM260 700Q284 698 301 691T334 673T364 655T400 645Q430 641 443 655T461 697L501 694Q500 637 475 609T412 583Q386
585 367 593T332 611T302 629T270 640Q241 643 228 629T210 584L170 588Q172 648 198 675T260 700Z" />
<glyph unicode="&#xe4;" horiz-adv-x="573" d="M294 499Q320 499 349 498T409 493T468 485T523 476L485 423Q430 425 387 426T320 428Q270 428 238 422T187 396T157 340T136 242Q126 169 127 130T145 77T195 62Q231 62 266 77T340 123T419 197L436 156Q411 111
372 73T283 12T178 -12Q120 -12 88 12T46 94T51 249Q63 331 83 381T132 456T202 490T294 499ZM437 476H523L456 0H389L396 115L387 123L437 476ZM271 946Q286 946 290 940T293 922L285 867Q284 855 278 849T258 843H230Q206 843 209 866L217 922Q219 934 225 940T245
946H271ZM440 946Q455 946 459 940T462 922L454 867Q453 855 447 849T427 843H399Q375 843 378 866L386 922Q388 934 394 940T414 946H440Z" />
<glyph unicode="&#xe5;" horiz-adv-x="573" d="M294 499Q320 499 349 498T409 493T468 485T523 476L485 423Q430 425 387 426T320 428Q270 428 238 422T187 396T157 340T136 242Q126 169 127 130T145 77T195 62Q231 62 266 77T340 123T419 197L436 156Q411 111
372 73T283 12T178 -12Q120 -12 88 12T46 94T51 249Q63 331 83 381T132 456T202 490T294 499ZM437 476H523L456 0H389L396 115L387 123L437 476ZM342 745Q387 745 415 719T443 649Q443 600 411 568T329 535Q284 535 256 561T228 631Q228 680 260 712T342 745ZM341
701Q310 701 293 682T276 635Q276 611 290 595T331 579Q360 579 377 598T395 646Q395 670 381 685T341 701Z" />
<glyph unicode="&#xe6;" horiz-adv-x="873" d="M292 499Q329 499 370 496T453 487T530 473L490 421Q452 423 420 424T362 427T318 428Q269 428 238 421T187 395T158 339T138 242Q128 170 129 131T145 77T192 62Q229 62 264 77T335 123T413 197L430 157Q406 112
368 74T282 12T175 -12Q117 -12 85 13T45 96T50 249Q62 331 82 381T131 456T201 490T292 499ZM651 499Q728 499 770 482T826 429T832 343Q824 296 803 268T743 226T647 207L409 185L419 249L646 271Q678 274 698 281T731 305T747 350Q753 387 743 403T706 424T640
428Q600 428 572 421T525 396T494 343T473 254Q461 173 471 131T514 75T597 60Q623 60 654 61T716 66T772 72L778 15Q754 5 719 -1T647 -9T582 -12Q499 -12 451 16T388 104T385 255Q395 327 413 374T463 449T540 487T651 499Z" />
<glyph unicode="&#xe7;" horiz-adv-x="484" d="M308 499Q343 499 386 494T464 475L450 422Q418 425 382 426T322 427Q263 427 225 412T166 357T135 240Q125 165 134 127T174 74T261 60Q277 60 301 61T354 64T407 70L413 12Q375 0 331 -6T246 -12Q161 -12 113 14T49
97T46 247Q60 340 89 395T172 475T308 499ZM182 -55Q221 -51 246 -55T281 -76T286 -124Q280 -165 255 -193T190 -234T104 -241L120 -196Q161 -197 190 -176T225 -123Q228 -106 218 -101T172 -95L182 -55Z" />
<glyph unicode="&#xe8;" horiz-adv-x="537" d="M314 499Q391 499 433 482T489 429T495 343Q487 296 466 268T406 226T310 207L73 185L82 249L309 271Q342 274 362 281T394 305T411 350Q417 387 406 403T369 424T303 428Q263 428 235 421T188 396T157 343T136 254Q124
173 135 131T177 75T260 60Q287 60 318 61T381 66T439 72L445 15Q420 5 384 -1T312 -9T246 -12Q162 -12 115 16T52 104T48 255Q58 327 77 374T127 449T204 487T314 499ZM200 734L370 587L339 549L154 674L200 734Z" />
<glyph unicode="&#xe9;" horiz-adv-x="537" d="M314 499Q391 499 433 482T489 429T495 343Q487 296 466 268T406 226T310 207L73 185L82 249L309 271Q342 274 362 281T394 305T411 350Q417 387 406 403T369 424T303 428Q263 428 235 421T188 396T157 343T136 254Q124
173 135 131T177 75T260 60Q287 60 318 61T381 66T439 72L445 15Q420 5 384 -1T312 -9T246 -12Q162 -12 115 16T52 104T48 255Q58 327 77 374T127 449T204 487T314 499ZM448 735L489 669L282 549L256 588L448 735Z" />
<glyph unicode="&#xea;" horiz-adv-x="537" d="M314 499Q391 499 433 482T489 429T495 343Q487 296 466 268T406 226T310 207L73 185L82 249L309 271Q342 274 362 281T394 305T411 350Q417 387 406 403T369 424T303 428Q263 428 235 421T188 396T157 343T136 254Q124
173 135 131T177 75T260 60Q287 60 318 61T381 66T439 72L445 15Q420 5 384 -1T312 -9T246 -12Q162 -12 115 16T52 104T48 255Q58 327 77 374T127 449T204 487T314 499ZM368 716L492 583L460 550L341 651H333L184 551L159 589L308 716H368Z" />
<glyph unicode="&#xeb;" horiz-adv-x="537" d="M314 499Q391 499 433 482T489 429T495 343Q487 296 466 268T406 226T310 207L73 185L82 249L309 271Q342 274 362 281T394 305T411 350Q417 387 406 403T369 424T303 428Q263 428 235 421T188 396T157 343T136 254Q124
173 135 131T177 75T260 60Q287 60 318 61T381 66T439 72L445 15Q420 5 384 -1T312 -9T246 -12Q162 -12 115 16T52 104T48 255Q58 327 77 374T127 449T204 487T314 499ZM265 946Q280 946 284 940T287 922L279 867Q278 855 272 849T252 843H224Q200 843 203 866L211
922Q213 934 219 940T239 946H265ZM434 946Q449 946 453 940T456 922L448 867Q447 855 441 849T421 843H393Q369 843 372 866L380 922Q382 934 388 940T408 946H434Z" />
<glyph unicode="&#xec;" horiz-adv-x="246" d="M193 487L124 0H39L108 487H193ZM299 734L469 587L438 549L253 674L299 734Z" />
<glyph unicode="&#xed;" horiz-adv-x="246" d="M193 487L124 0H39L108 487H193ZM547 735L588 669L381 549L355 588L547 735Z" />
<glyph unicode="&#xee;" horiz-adv-x="246" d="M193 487L124 0H39L108 487H193ZM467 716L591 583L559 550L440 651H432L283 551L258 589L407 716H467Z" />
<glyph unicode="&#xef;" horiz-adv-x="246" d="M193 487L124 0H39L108 487H193ZM364 946Q379 946 383 940T386 922L378 867Q377 855 371 849T351 843H323Q299 843 302 866L310 922Q312 934 318 940T338 946H364ZM533 946Q548 946 552 940T555 922L547 867Q546
855 540 849T520 843H492Q468 843 471 866L479 922Q481 934 487 940T507 946H533Z" />
<glyph unicode="&#xf0;" horiz-adv-x="555" d="M181 698Q237 700 289 689T383 651T455 575T494 454T491 279Q482 212 466 159T420 67T344 8T230 -13Q155 -13 110 12T50 90T44 222Q58 327 110 387T269 448Q292 448 316 444T363 429T408 398T448 343L441 308Q418
335 393 350T342 371T287 377Q236 377 205 358T156 303T132 216Q119 129 144 94T234 59Q290 59 324 84T376 160T405 291Q417 383 410 445T380 546T325 604T251 630T168 636L181 698ZM468 710L493 674L267 518L244 552L468 710Z" />
<glyph unicode="&#xf1;" horiz-adv-x="578" d="M400 499Q441 499 468 484T508 439T515 364L463 0H378L427 343Q433 391 421 409T374 427Q326 427 276 397T157 312L158 374Q227 436 285 467T400 499ZM172 487L164 361L168 346L120 0H35L104 487H172ZM264 700Q288
698 305 691T338 673T368 655T404 645Q434 641 447 655T465 697L505 694Q504 637 479 609T416 583Q390 585 371 593T336 611T306 629T274 640Q245 643 232 629T214 584L174 588Q176 648 202 675T264 700Z" />
<glyph unicode="&#xf2;" horiz-adv-x="564" d="M307 499Q389 499 437 474T501 391T504 239Q491 147 462 92T380 12T245 -13Q164 -13 116 12T50 95T46 246Q59 338 88 393T171 474T307 499ZM307 427Q253 427 219 411T166 355T135 239Q125 170 131 131T165 75T245
59Q300 59 334 76T387 134T417 246Q427 317 421 356T387 411T307 427ZM200 734L370 587L339 549L154 674L200 734Z" />
<glyph unicode="&#xf3;" horiz-adv-x="564" d="M307 499Q389 499 437 474T501 391T504 239Q491 147 462 92T380 12T245 -13Q164 -13 116 12T50 95T46 246Q59 338 88 393T171 474T307 499ZM307 427Q253 427 219 411T166 355T135 239Q125 170 131 131T165 75T245
59Q300 59 334 76T387 134T417 246Q427 317 421 356T387 411T307 427ZM448 735L489 669L282 549L256 588L448 735Z" />
<glyph unicode="&#xf4;" horiz-adv-x="564" d="M307 499Q389 499 437 474T501 391T504 239Q491 147 462 92T380 12T245 -13Q164 -13 116 12T50 95T46 246Q59 338 88 393T171 474T307 499ZM307 427Q253 427 219 411T166 355T135 239Q125 170 131 131T165 75T245
59Q300 59 334 76T387 134T417 246Q427 317 421 356T387 411T307 427ZM368 716L492 583L460 550L341 651H333L184 551L159 589L308 716H368Z" />
<glyph unicode="&#xf5;" horiz-adv-x="564" d="M307 499Q389 499 437 474T501 391T504 239Q491 147 462 92T380 12T245 -13Q164 -13 116 12T50 95T46 246Q59 338 88 393T171 474T307 499ZM307 427Q253 427 219 411T166 355T135 239Q125 170 131 131T165 75T245
59Q300 59 334 76T387 134T417 246Q427 317 421 356T387 411T307 427ZM254 700Q278 698 295 691T328 673T358 655T394 645Q424 641 437 655T455 697L495 694Q494 637 469 609T406 583Q380 585 361 593T326 611T296 629T264 640Q235 643 222 629T204 584L164 588Q166
648 192 675T254 700Z" />
<glyph unicode="&#xf6;" horiz-adv-x="564" d="M307 499Q389 499 437 474T501 391T504 239Q491 147 462 92T380 12T245 -13Q164 -13 116 12T50 95T46 246Q59 338 88 393T171 474T307 499ZM307 427Q253 427 219 411T166 355T135 239Q125 170 131 131T165 75T245
59Q300 59 334 76T387 134T417 246Q427 317 421 356T387 411T307 427ZM265 946Q280 946 284 940T287 922L279 867Q278 855 272 849T252 843H224Q200 843 203 866L211 922Q213 934 219 940T239 946H265ZM434 946Q449 946 453 940T456 922L448 867Q447 855 441 849T421
843H393Q369 843 372 866L380 922Q382 934 388 940T408 946H434Z" />
<glyph unicode="&#xf7;" horiz-adv-x="567" d="M508 327L498 263H60L70 327H508ZM275 176Q292 176 299 168T305 142L297 93Q296 78 288 71T264 64H241Q224 64 218 72T213 98L220 145Q222 161 230 168T252 176H275ZM324 525Q342 524 349 516T353 491L347 442Q345
427 337 420T313 413H291Q274 413 267 421T261 446L268 494Q270 510 278 517T302 525H324Z" />
<glyph unicode="&#xf8;" horiz-adv-x="564" d="M449 563L487 541L113 -75L76 -53L449 563ZM307 499Q389 499 437 474T501 391T504 239Q491 147 462 92T380 12T245 -13Q164 -13 116 12T50 95T46 246Q59 338 88 393T171 474T307 499ZM307 427Q253 427 219 411T166
355T135 239Q125 170 131 131T165 75T245 59Q300 59 334 76T387 134T417 246Q427 317 421 356T387 411T307 427Z" />
<glyph unicode="&#xf9;" horiz-adv-x="567" d="M186 487L137 144Q130 99 144 80T195 61Q242 61 286 90T396 179L404 118Q339 53 282 20T166 -13Q99 -13 70 23T50 123L101 487H186ZM518 487L450 0H384L393 134L387 148L433 487H518ZM205 737L375 590L344 552L159
677L205 737Z" />
<glyph unicode="&#xfa;" horiz-adv-x="567" d="M186 487L137 144Q130 99 144 80T195 61Q242 61 286 90T396 179L404 118Q339 53 282 20T166 -13Q99 -13 70 23T50 123L101 487H186ZM518 487L450 0H384L393 134L387 148L433 487H518ZM452 738L493 672L286 552L260
591L452 738Z" />
<glyph unicode="&#xfb;" horiz-adv-x="567" d="M186 487L137 144Q130 99 144 80T195 61Q242 61 286 90T396 179L404 118Q339 53 282 20T166 -13Q99 -13 70 23T50 123L101 487H186ZM518 487L450 0H384L393 134L387 148L433 487H518ZM372 720L496 587L464 554L345
655H337L188 555L163 593L312 720H372Z" />
<glyph unicode="&#xfc;" horiz-adv-x="567" d="M186 487L137 144Q130 99 144 80T195 61Q242 61 286 90T396 179L404 118Q339 53 282 20T166 -13Q99 -13 70 23T50 123L101 487H186ZM518 487L450 0H384L393 134L387 148L433 487H518ZM269 694Q284 694 288 688T291
670L283 615Q282 603 276 597T256 591H228Q204 591 207 614L215 670Q217 682 223 688T243 694H269ZM438 694Q453 694 457 688T460 670L452 615Q451 603 445 597T425 591H397Q373 591 376 614L384 670Q386 682 392 688T412 694H438Z" />
<glyph unicode="&#xfd;" horiz-adv-x="539" d="M523 487Q513 444 503 403T479 322T451 241T417 162T375 81Q322 -18 272 -76T169 -164T51 -206L35 -145Q73 -136 107 -120T173 -75T237 -3T301 106Q332 167 356 225T400 346T435 487H523ZM133 487L210 86Q215 67
233 67H290L251 0H195Q173 0 158 12T138 45L44 487H133ZM420 735L461 669L254 549L228 588L420 735Z" />
<glyph unicode="&#xfe;" horiz-adv-x="573" d="M384 499Q437 499 469 476T512 396T509 238Q497 156 477 106T428 31T360 -4T271 -13Q222 -13 162 -6T54 11L77 63Q132 62 175 61T240 59Q290 59 321 65T371 91T401 146T421 244Q432 318 431 357T414 410T365 425Q329
425 293 409T220 363T141 290L124 330Q150 376 189 414T279 475T384 499ZM219 700L193 513Q189 485 185 459T173 404L175 394L128 50L122 36Q121 8 118 -18T110 -73L92 -201H8L134 700H219Z" />
<glyph unicode="&#xff;" horiz-adv-x="539" d="M523 487Q513 444 503 403T479 322T451 241T417 162T375 81Q322 -18 272 -76T169 -164T51 -206L35 -145Q73 -136 107 -120T173 -75T237 -3T301 106Q332 167 356 225T400 346T435 487H523ZM133 487L210 86Q215 67
233 67H290L251 0H195Q173 0 158 12T138 45L44 487H133ZM237 946Q252 946 256 940T259 922L251 867Q250 855 244 849T224 843H196Q172 843 175 866L183 922Q185 934 191 940T211 946H237ZM406 946Q421 946 425 940T428 922L420 867Q419 855 413 849T393 843H365Q341
843 344 866L352 922Q354 934 360 940T380 946H406Z" />
<glyph unicode="&#x2013;" horiz-adv-x="591" d="M518 285L509 220H61L70 285H518Z" />
<glyph unicode="&#x2014;" horiz-adv-x="895" d="M822 285L813 220H61L70 285H822Z" />
<glyph unicode="&#x2018;" horiz-adv-x="217" d="M123 491Q106 491 100 498T96 522L105 581Q108 605 116 629T135 678T161 725L202 711Q193 683 185 658T170 599Q184 601 190 594T195 574L187 519Q184 503 177 497T149 491H123Z" />
<glyph unicode="&#x2019;" horiz-adv-x="215" d="M181 716Q198 716 204 709T208 685L199 626Q196 602 188 578T169 529T143 482L102 496Q111 524 119 549T134 608Q120 606 114 613T109 633L117 688Q120 704 127 710T155 716H181Z" />
<glyph unicode="&#x201a;" horiz-adv-x="228" d="M103 109Q120 109 126 102T130 78L121 19Q118 -4 110 -29T91 -78T65 -125L23 -111Q33 -83 41 -58T56 1Q42 0 36 7T30 26L38 81Q42 98 49 103T77 109H103Z" />
<glyph unicode="&#x201c;" horiz-adv-x="369" d="M123 491Q106 491 100 498T96 522L105 581Q108 605 116 629T135 678T161 725L202 711Q193 683 185 658T170 599Q184 601 190 594T195 574L187 519Q184 503 177 497T149 491H123ZM275 491Q258 491 252 498T248 522L257
581Q260 605 268 629T287 678T313 725L354 711Q345 683 337 658T322 599Q336 601 342 594T347 574L339 519Q336 503 329 497T301 491H275Z" />
<glyph unicode="&#x201d;" horiz-adv-x="368" d="M333 716Q350 716 356 709T360 685L351 626Q348 602 340 578T321 529T295 482L254 496Q263 524 271 549T286 608Q272 606 266 613T261 633L269 688Q272 704 279 710T307 716H333ZM181 716Q198 716 204 709T208
685L199 626Q196 602 188 578T169 529T143 482L102 496Q111 524 119 549T134 608Q120 606 114 613T109 633L117 688Q120 704 127 710T155 716H181Z" />
<glyph unicode="&#x201e;" horiz-adv-x="380" d="M255 109Q272 109 278 102T282 78L273 19Q270 -5 262 -29T243 -78T217 -125L176 -111Q185 -83 193 -58T208 1Q194 -1 188 6T183 26L191 81Q194 97 201 103T229 109H255ZM103 109Q120 109 126 102T130 78L121 19Q118
-5 110 -29T91 -78T65 -125L24 -111Q33 -83 41 -58T56 1Q42 -1 36 6T31 26L39 81Q42 97 49 103T77 109H103Z" />
<glyph unicode="&#x2022;" horiz-adv-x="361" d="M195 358Q241 358 258 339T269 273L267 260Q263 227 253 209T224 184T174 177H162Q113 177 96 196T86 265L88 278Q92 310 102 327T131 351T183 358H195Z" />
<glyph unicode="&#x2039;" horiz-adv-x="296" d="M225 459L260 427L107 250L216 68L173 39L37 246L38 265L225 459Z" />
<glyph unicode="&#x203a;" horiz-adv-x="297" d="M111 459L247 253L246 234L59 39L24 71L177 249L69 431L111 459Z" />
</font>
</defs>
</svg>
